<svg width="137" height="85" viewBox="0 0 137 85" fill="none" xmlns="http://www.w3.org/2000/svg">
<path d="M0.974976 77.7056H9.86885C13.7169 77.7056 16.478 76.8268 18.1939 75.1433C19.9097 73.4598 20.8625 70.375 20.8625 66.009C20.8625 61.4811 19.9837 58.5581 18.0875 56.833C16.1912 55.1079 13.7215 54.4696 9.87348 54.4696H0.974976V77.7056ZM16.1172 66.009C15.9184 72.7014 14.7575 73.779 9.38785 73.8992H5.34097V58.2251H9.38785C12.1629 58.2251 13.5134 58.4656 14.6372 59.5432C15.7611 60.6209 16.1172 62.5217 16.1172 66.009ZM31.8422 60.2C26.5975 60.2 23.9103 62.605 23.9103 69.1355C23.9103 72.4608 24.6319 74.7826 26.0332 76.147C27.4346 77.5113 29.5205 78.1866 32.166 78.1866C34.179 78.1949 36.1804 77.8827 38.0952 77.2616L37.4153 73.9778C35.8715 74.4579 34.2638 74.7012 32.647 74.6993C31.0837 74.6993 29.9228 74.3756 29.28 73.816C28.6371 73.2563 28.281 72.0538 28.2393 70.2917H39.3393C39.4596 66.1662 39.0202 63.5994 37.6605 62.1564C36.3007 60.7134 34.6542 60.237 31.8099 60.237L31.8422 60.2ZM32.0041 63.4837C33.2374 63.4837 34.0792 63.7242 34.5294 64.2052C34.9919 64.6677 35.2509 65.6482 35.2879 67.1328H28.3365C28.6186 64.3255 29.4604 63.4837 32.0642 63.4837H32.0041ZM48.8299 73.5431C47.5071 68.8102 46.1057 64.5367 44.6257 60.7226H40.2967C42.5173 66.2741 44.4303 71.9437 46.0271 77.7056H51.1562C53.6768 71.5358 55.7211 65.8887 57.2844 60.7226H53.0756C51.9149 65.0713 50.5113 69.3515 48.8715 73.5431H48.8299ZM69.906 78.1681C77.306 78.1681 80.9597 75.444 80.9597 65.8286C80.9597 61.1435 80.081 58.0586 78.1847 56.2965C76.2885 54.5344 73.7771 53.8499 69.8921 53.8499C66.0071 53.8499 63.5605 54.5344 61.5671 56.2965C59.6431 58.0586 58.7921 61.1851 58.7921 65.8286C58.7921 70.597 59.6755 73.7605 61.5671 75.6058C63.4587 77.4512 66.0117 78.1311 69.8921 78.1311L69.906 78.1681ZM63.5327 65.9118C63.5327 62.3044 63.7732 60.422 64.8139 59.2611C65.8545 58.1002 67.2188 57.8181 69.943 57.8181C72.6671 57.8181 73.9899 58.0586 75.0305 59.2611C76.0711 60.4636 76.3532 62.3044 76.3532 65.9118C76.3532 72.9603 75.0305 74.2045 69.9846 74.2045C64.9387 74.2045 63.616 72.9603 63.616 65.9118H63.5327ZM92.2077 78.1681C95.0521 78.1681 97.138 77.4882 98.4191 76.2071C99.7002 74.926 100.343 72.4793 100.343 69.117C100.343 65.7546 99.7002 63.4652 98.4191 62.1795C97.138 60.8937 95.0521 60.2185 92.2077 60.2185C89.3633 60.2185 87.3607 60.8984 86.0796 62.1795C84.7985 63.4606 84.1556 65.787 84.1556 69.117C84.1556 72.447 84.7985 74.8427 86.0796 76.2071C87.3607 77.5715 89.405 78.1681 92.2494 78.1681H92.2077ZM92.2077 63.5485C95.3342 63.6271 95.9771 64.27 96.0974 69.1956C96.0974 71.5081 95.8152 73.002 95.2926 73.7235C94.77 74.445 93.7293 74.8427 92.2077 74.8427C90.6861 74.8427 89.6871 74.482 89.1645 73.7235C88.6418 72.965 88.4014 71.4804 88.4014 69.1956C88.4014 66.8322 88.6835 65.3106 89.1645 64.6307C89.6455 63.9509 90.7 63.567 92.2355 63.567L92.2077 63.5485ZM112.239 78.1681C114.685 78.1681 116.526 77.4882 117.789 76.1655C119.051 74.8427 119.671 72.4655 119.671 69.1956C119.671 65.8286 119.028 63.4652 117.747 62.1841C116.466 60.903 114.422 60.2231 111.499 60.2231C108.955 60.1606 106.424 60.5958 104.048 61.5042V84.139H108.173V77.2015C109.442 77.8447 110.844 78.1821 112.266 78.1866L112.239 78.1681ZM111.512 63.8075C113.034 63.8075 114.033 64.1682 114.597 64.8851C115.162 65.602 115.439 67.0496 115.439 69.3343C115.439 71.4156 115.157 72.8216 114.597 73.5801C114.038 74.3386 113.034 74.704 111.549 74.704C109.667 74.704 108.224 74.0195 108.224 73.0621V64.3255C109.294 63.9606 110.419 63.7853 111.549 63.8075H111.512ZM135.562 61.162C133.717 60.5359 131.78 60.2232 129.832 60.237C125.147 60.237 122.543 61.7586 122.543 65.8841C122.543 69.2095 124.305 70.412 128.273 70.7311C131.118 71.0132 131.918 71.5312 131.918 72.7753C131.918 74.4958 130.993 74.8566 128.593 74.8566C126.875 74.8736 125.167 74.6048 123.537 74.0611L122.659 77.3448C124.621 77.9941 126.679 78.3068 128.745 78.2698C131.113 78.2698 132.908 77.8073 134.156 76.9841C135.405 76.1608 136.039 74.6716 136.039 72.5811C136.039 69.2557 134.355 67.8913 130.11 67.452C127.335 67.1699 126.585 66.7721 126.585 65.602C126.585 63.9601 127.385 63.641 129.67 63.641C131.344 63.6504 133.005 63.9204 134.596 64.4411L135.521 61.2036L135.562 61.162Z" fill="black"/>
<path d="M98.8492 27.2375C96.7077 27.2412 94.6154 27.8793 92.8363 29.0712C91.0572 30.2631 89.6711 31.9554 88.8531 33.9345C88.0351 35.9136 87.8218 38.0906 88.2401 40.1908C88.6584 42.291 89.6897 44.2202 91.2036 45.7348C92.7175 47.2493 94.6462 48.2814 96.7463 48.7006C98.8463 49.1198 101.023 48.9075 103.003 48.0903C104.982 47.2731 106.675 45.8878 107.868 44.1092C109.061 42.3306 109.699 40.2385 109.704 38.0971C109.702 35.2185 108.557 32.4584 106.522 30.4226C104.487 28.3867 101.728 27.2412 98.8492 27.2375ZM98.8492 44.8126C97.5098 44.8135 96.2002 44.4171 95.0861 43.6737C93.9721 42.9302 93.1035 41.8731 92.5903 40.6359C92.0771 39.3988 91.9424 38.0372 92.2031 36.7234C92.4638 35.4097 93.1083 34.2028 94.0551 33.2554C95.0019 32.308 96.2083 31.6626 97.5219 31.401C98.8355 31.1394 100.197 31.2732 101.435 31.7855C102.672 32.2979 103.73 33.1657 104.474 34.2793C105.218 35.3929 105.616 36.7022 105.616 38.0416C105.611 39.835 104.896 41.5537 103.629 42.8224C102.361 44.091 100.643 44.8065 98.8492 44.8126Z" fill="#503B7F"/>
<path d="M42.1976 27.2375C40.0563 27.2421 37.9644 27.881 36.1859 29.0734C34.4074 30.2659 33.0221 31.9586 32.2048 33.9377C31.3875 35.9168 31.1748 38.0937 31.5937 40.1936C32.0126 42.2935 33.0441 44.2223 34.5582 45.7364C36.0723 47.2505 38.0011 48.2821 40.101 48.7009C42.2009 49.1198 44.3778 48.9071 46.3569 48.0898C48.3361 47.2725 50.0287 45.8872 51.2212 44.1087C52.4137 42.3302 53.0525 40.2383 53.0571 38.097C53.0558 35.2173 51.9113 32.4559 49.875 30.4196C47.8388 28.3833 45.0773 27.2388 42.1976 27.2375ZM42.1976 44.8125C40.8584 44.8125 39.5493 44.4154 38.4358 43.6714C37.3223 42.9274 36.4545 41.8699 35.942 40.6327C35.4295 39.3955 35.2954 38.034 35.5567 36.7206C35.8179 35.4071 36.4628 34.2007 37.4097 33.2537C38.3567 32.3068 39.5632 31.6619 40.8766 31.4006C42.1901 31.1394 43.5515 31.2735 44.7887 31.786C46.026 32.2984 47.0834 33.1663 47.8275 34.2798C48.5715 35.3933 48.9686 36.7024 48.9686 38.0415C48.9625 39.8354 48.2472 41.5541 46.9787 42.8226C45.7102 44.0911 43.9915 44.8064 42.1976 44.8125Z" fill="#503B7F"/>
<path d="M47.6876 27.0664L47.4887 23.5051H93.3594L93.5167 27.0664H47.6876Z" fill="#503B7F"/>
<path d="M89.7148 20.9384L92.1985 18.2559L96.7633 29.6704L93.3177 30.7526L89.7148 20.9384Z" fill="#503B7F"/>
<path d="M51.295 20.9384L48.8114 18.2559L44.2835 29.6704L47.6875 30.7526L51.295 20.9384Z" fill="#503B7F"/>
<path d="M92.8783 16.6001C89.5529 20.0041 84.9834 18.1587 83.8642 14.3939C83.4248 13.1914 83.7439 11.9519 83.6653 10.9483C84.1182 10.9956 84.5754 10.9832 85.025 10.9113C86.0184 10.7459 86.9404 10.2894 87.6742 9.59955C88.4079 8.90973 88.9204 8.01767 89.1467 7.03635C89.3731 6.05502 89.3031 5.0286 88.9456 4.08709C88.5882 3.14558 87.9593 2.33135 87.1387 1.74752C86.3181 1.1637 85.3427 0.836558 84.336 0.807534C83.3294 0.77851 82.3367 1.04891 81.4838 1.58448C80.631 2.12006 79.9563 2.89671 79.5451 3.81606C79.134 4.7354 79.005 5.75609 79.1744 6.74882C79.3457 7.7217 79.7919 8.62524 80.4602 9.3527C76.5705 11.9566 68.6387 21.6506 73.0879 26.0582C76.4919 29.4252 85.6679 33.8698 79.216 41.8433C78.5778 42.6434 81.2603 43.3649 82.0604 42.4816C83.9268 40.4005 85.0776 37.7763 85.3442 34.9937C85.8067 31.4648 82.8605 27.9406 80.9782 25.3367C79.7757 23.6948 81.3389 18.0847 82.9438 19.3658C85.5847 21.9697 89.5113 22.6912 91.9949 19.3658C92.7164 19.0467 93.6368 16.0034 92.8783 16.5631V16.6001Z" fill="#503B7F"/>
<path d="M48.15 16.6001C51.4754 20.0041 56.0403 18.1587 57.1641 14.3939C57.6035 13.1914 57.2844 11.9519 57.363 10.9483C56.9101 10.9956 56.4529 10.9831 56.0033 10.9113C54.8857 10.7262 53.8619 10.1734 53.094 9.34055C52.3262 8.50767 51.8583 7.44236 51.7645 6.31345C51.6707 5.18455 51.9564 4.05663 52.5762 3.10845C53.1961 2.16028 54.1146 1.44609 55.1863 1.07909C56.258 0.712083 57.4215 0.713256 58.4925 1.08242C59.5635 1.45157 60.4806 2.1676 61.0985 3.11702C61.7164 4.06644 61.9998 5.19493 61.9037 6.32365C61.8077 7.45236 61.3376 8.51674 60.5681 9.34806C64.4531 11.9519 72.3896 21.6459 67.9404 26.0536C64.5364 29.4206 55.3604 33.8652 61.8123 41.8387C62.4505 42.6388 59.768 43.3603 58.9679 42.4769C57.1001 40.3963 55.9477 37.7722 55.6795 34.9891C55.2401 31.4602 58.1678 27.9359 60.0501 25.3321C61.248 23.6902 59.6894 18.0801 58.0845 19.3612C55.439 21.9651 51.517 22.6866 49.0334 19.3612C48.3119 19.0421 47.3869 15.9988 48.15 16.5584V16.6001Z" fill="#503B7F"/>
<path d="M84.3036 41.6907H78.7767C78.3373 41.6907 77.9766 42.1532 77.9766 42.7729C77.9766 43.3742 78.3373 43.8552 78.7767 43.8552H84.3036C84.7661 43.8552 85.1037 43.3927 85.1037 42.7729C85.1037 42.1717 84.7429 41.6907 84.3036 41.6907Z" fill="#503B7F"/>
<path d="M62.3903 41.6907H56.8634C56.4009 41.6907 56.0587 42.1532 56.0587 42.7729C56.0587 43.3742 56.4194 43.8552 56.8634 43.8552H62.3903C62.8528 43.8552 63.1904 43.3927 63.1904 42.7729C63.1904 42.1717 62.8297 41.6907 62.3903 41.6907Z" fill="#503B7F"/>
<path d="M77.0932 34.041H63.9952C63.7357 34.0702 63.498 34.1998 63.3329 34.4021C63.1678 34.6043 63.0884 34.8632 63.1118 35.1233C63.0897 35.3826 63.1696 35.6403 63.3346 35.8415C63.4996 36.0428 63.7366 36.1717 63.9952 36.2009H77.0932C77.3518 36.1717 77.5888 36.0428 77.7538 35.8415C77.9187 35.6403 77.9987 35.3826 77.9766 35.1233C78 34.8632 77.9206 34.6043 77.7555 34.4021C77.5904 34.1998 77.3526 34.0702 77.0932 34.041Z" fill="#503B7F"/>
<path d="M61.1 42.2503C62.062 38.726 62.2193 38.1248 63.1443 34.6005C63.1942 34.4878 63.2661 34.3862 63.3558 34.3017C63.4455 34.2172 63.5512 34.1515 63.6667 34.1084C63.7821 34.0653 63.9051 34.0458 64.0282 34.0508C64.1514 34.0559 64.2722 34.0856 64.3838 34.138C64.9434 34.2999 65.3458 34.7809 65.2255 35.1786L63.1813 42.833C63.0748 43.0556 62.8861 43.2282 62.6549 43.3145C62.4237 43.4007 62.168 43.3939 61.9418 43.2955C61.3868 43.1336 60.989 42.6526 61.1 42.2503Z" fill="#503B7F"/>
<path d="M80.1365 42.4538C79.1745 38.9249 79.0173 38.3283 78.0969 34.7994C77.9895 34.5765 77.7999 34.4038 77.568 34.3176C77.3361 34.2313 77.0797 34.2383 76.8528 34.3369C76.2932 34.4988 75.8908 34.9798 76.011 35.3822L78.0553 43.0319C78.1052 43.1446 78.1771 43.2462 78.2668 43.3307C78.3565 43.4152 78.4622 43.4809 78.5777 43.524C78.6932 43.5671 78.8161 43.5867 78.9392 43.5816C79.0624 43.5765 79.1832 43.5469 79.2948 43.4944C79.859 43.3325 80.2568 42.8515 80.1365 42.4538Z" fill="#503B7F"/>
</svg>
