<svg width="96" height="74" viewBox="0 0 96 74" fill="none" xmlns="http://www.w3.org/2000/svg">
<path fill-rule="evenodd" clip-rule="evenodd" d="M64.72 50.18V53.1299L68.08 52.5299V49.5899L64.72 50.18ZM70.43 49.18V52.18L73.79 51.5899V48.5899L70.43 49.18ZM76.14 48.18V51.12L79.5 50.5299V47.5299L76.14 48.18ZM26.33 43V55.68C26.3508 55.8523 26.336 56.0271 26.2865 56.1936C26.2371 56.36 26.154 56.5146 26.0425 56.6477C25.931 56.7807 25.7934 56.8895 25.6381 56.9673C25.4829 57.0451 25.3134 57.0903 25.14 57.0999L20.83 57.86C20.07 57.99 19.77 57.74 19.77 56.97V54.1999L16.44 54.79V57.3C16.44 60.06 18.02 61.39 20.75 60.91L25.51 60.07C26.72 59.9433 27.833 59.3505 28.6133 58.4171C29.3936 57.4837 29.7798 56.2832 29.69 55.07V42.36L26.33 43ZM44.23 39.8499L39.59 40.66C37.04 41.11 35.41 42.66 35.41 45.32V46.5299C35.41 48.36 36.25 49.6099 38.15 49.7699L44.61 50.32C45.05 50.32 45.21 50.54 45.21 50.98V52.68C45.21 53.4599 44.72 53.7599 44 53.8799L39.64 54.65C39 54.76 38.56 54.72 38.56 53.98V51.61L35.25 52.19V54.3C35.25 57.02 36.94 58.06 39.51 57.61L44.34 56.76C46.9 56.31 48.55 54.7599 48.55 52.0899V50.0899C48.5784 49.6972 48.5237 49.3029 48.3894 48.9327C48.255 48.5626 48.0441 48.2249 47.7705 47.9418C47.4968 47.6587 47.1665 47.4365 46.8011 47.2897C46.4357 47.1429 46.0435 47.0749 45.65 47.0899L39.32 46.54C38.75 46.54 38.72 46.3299 38.72 45.7799V44.7799C38.72 43.9899 39.21 43.7 39.93 43.58L44.09 42.8499C44.74 42.7299 45.18 42.78 45.18 43.51V46L48.48 45.41V43.0999C48.48 40.82 47.22 39.6999 45.28 39.6999C44.9276 39.7003 44.5761 39.7338 44.23 39.8V39.8499ZM61.58 35.61L54.42 55.8799L57.87 55.2699L65 35L61.58 35.61ZM26.33 21.6999V28.25L19.8 29.4V22.8499L16.44 23.44V40.2699L19.8 39.68V32.47L26.33 31.3099V38.5299L29.69 37.93V21.11L26.33 21.6999ZM38.61 32.16V23.76C38.5907 23.5923 38.6058 23.4224 38.6544 23.2608C38.7029 23.0992 38.784 22.9492 38.8926 22.82C39.0012 22.6908 39.1351 22.5851 39.2859 22.5095C39.4368 22.4338 39.6015 22.3897 39.77 22.3799L44.09 21.61C44.83 21.48 45.09 21.71 45.09 22.47V31C45.1157 31.3207 45.0167 31.6389 44.8137 31.8885C44.6107 32.1381 44.3192 32.2998 44 32.3399L39.69 33.0999H39.38C38.8 33.1299 38.61 32.8 38.61 32.16ZM44.19 18.5299L39.43 19.37C38.22 19.4966 37.107 20.0894 36.3267 21.0228C35.5464 21.9562 35.1602 23.1567 35.25 24.37V32.58C35.25 35.35 36.84 36.6799 39.56 36.1999L44.32 35.36C45.53 35.2333 46.643 34.6405 47.4233 33.7071C48.2036 32.7737 48.5898 31.5732 48.5 30.36V22.15C48.5 19.75 47.31 18.43 45.23 18.43C44.8812 18.4354 44.5334 18.4688 44.19 18.5299ZM54 16.82V33.6399L65.46 31.6399V28.5599L57.37 30V16.23L54 16.82ZM76.23 12.9V15.2C76.2379 15.6302 76.1309 16.0548 75.92 16.43L72.87 21.6299L69.79 17.43C69.5913 17.1062 69.497 16.7291 69.52 16.3499V14.08L66.19 14.6699V17.0999C66.1514 17.7469 66.3233 18.3889 66.68 18.93L71.16 25.0299V30.62L74.52 30.0299V24.44L78.99 16.8399C79.3388 16.2325 79.5119 15.5401 79.49 14.84V12.33L76.23 12.9ZM9.71 48.83L4.71 44.6299L9.71 38.8V18L86.22 4.45995V25.07L91.27 29.2799L86.22 35.16V56.05L76.14 57.87V68.44L56.58 61.32L9.71 69.59V48.83ZM6.35 15.1699V37.8899L0 45.32L6.38 50.66V73.55L56.24 64.7599L79.53 73.2399V60.65L89.61 58.83V36.0999L96 28.5899L89.55 23.22V0.449951L6.35 15.1699Z" fill="white"/>
</svg>
