<svg width="138" height="45" viewBox="0 0 138 45" fill="none" xmlns="http://www.w3.org/2000/svg">
<path d="M109.055 10.3833V23.4529C109.055 24.8767 109.28 26.1027 109.729 27.1311C110.188 28.1595 110.821 29.0047 111.628 29.6685C112.445 30.3214 113.415 30.8057 114.539 31.1231C115.662 31.4296 116.898 31.5838 118.245 31.5838C119.653 31.5838 120.945 31.4205 122.119 31.0941C122.799 30.9 123.425 30.6479 123.998 30.3414C124.189 30.5899 124.415 30.7223 124.706 30.6987L124.792 30.6914L124.842 30.6225C125 30.4067 125.123 30.0167 125.277 29.4853C126.088 28.807 126.726 27.9636 127.189 26.9552C127.224 26.8754 127.258 26.792 127.292 26.7103C127.316 26.7484 127.339 26.7829 127.365 26.8246C127.689 27.3107 127.953 27.7859 128.356 28.5095C128.657 29.0518 129.034 29.7265 129.56 30.6298L129.59 30.6805L129.644 30.7059C129.747 30.7513 129.841 30.7712 129.925 30.7712C130.247 30.7712 130.444 30.4919 130.549 30.3414L130.586 30.2888L130.594 30.2525C130.897 28.8161 130.601 27.4231 130.316 26.0755C130.219 25.6185 130.12 25.1451 130.047 24.6862C129.846 23.4729 129.176 21.5612 129.002 21.0733C129.09 21.0788 129.137 20.8575 129.255 20.765C130.14 20.0595 128.745 18.8951 127.914 18.2095C127.949 18.3002 127.983 18.3854 127.91 18.2058C127.839 18.0208 127.874 18.1079 127.91 18.1986V10.3833H123.391V13.2762C122.187 12.6795 120.822 12.2224 119.425 11.9612L119.151 11.9104L119.207 12.1752C119.209 12.1825 119.365 12.9261 119.552 13.6824C119.756 14.3989 119.898 14.865 120.043 15.3438C120.142 15.6739 120.245 16.0112 120.37 16.4411C120.593 15.6032 121.4 14.9811 122.363 14.9811C123.5 14.9811 124.419 15.8444 124.419 16.909C124.419 17.6218 124.005 18.2439 123.389 18.5777V21.6211C123.035 21.7625 122.752 21.9149 122.404 22.1488C122.378 22.1652 122.357 22.1833 122.335 22.2014C122.114 21.3508 121.902 20.5093 121.771 19.8092C121.726 19.5661 121.601 19.1218 121.455 18.6375C121.277 18.5559 121.114 18.4507 120.97 18.3255C121.132 18.8515 121.284 19.3666 121.363 19.6895L120.258 20.9518C119.743 21.4796 119.58 22.0781 119.81 22.595C120.065 23.1663 120.762 23.5055 121.601 23.4602C121.7 23.9081 122.033 24.2999 122.567 24.6101C122.574 24.6409 122.582 24.6717 122.589 24.7026C122.689 25.1251 122.762 25.4716 122.818 25.7618C122.595 26.2097 122.316 26.5924 121.979 26.9117C121.541 27.3361 121.009 27.6535 120.385 27.8602C119.773 28.0579 119.099 28.1577 118.363 28.1577C117.638 28.1577 116.979 28.0634 116.387 27.8765C115.795 27.6789 115.29 27.3778 114.87 26.9715C114.451 26.5562 114.13 26.032 113.906 25.399C113.681 24.757 113.568 23.9952 113.568 23.1137V10.3833H109.055ZM128.747 20.3714C128.67 20.1665 128.569 19.9017 128.457 19.606C128.672 19.8563 129.095 20.1247 128.747 20.3714ZM127.91 19.2197C127.974 19.3811 128.033 19.5425 128.093 19.6949C128.032 19.6496 127.972 19.606 127.91 19.5643V19.2197ZM127.91 23.2298V22.216C128.202 22.0164 128.5 21.7117 128.717 21.3835C128.955 22.0636 129.502 23.6778 129.678 24.7388C129.751 25.2068 129.852 25.6838 129.949 26.1463C130.225 27.4467 130.509 28.7925 130.234 30.1437C130.084 30.3577 129.994 30.4357 129.852 30.394C129.344 29.5216 128.979 28.865 128.683 28.3354C128.277 27.6063 128.009 27.1239 127.681 26.6305C127.601 26.5036 127.526 26.3875 127.453 26.2805C127.756 25.3845 127.91 24.3688 127.91 23.2298ZM124.771 29.868C124.708 30.0603 124.648 30.2217 124.588 30.3323C124.492 30.3142 124.406 30.2525 124.324 30.1564C124.477 30.0639 124.627 29.9678 124.771 29.868ZM121.852 22.7165C121.809 22.7329 121.767 22.7492 121.724 22.7655C121.558 22.8326 121.4 22.8961 121.226 22.8961C121.108 22.8961 120.994 22.8671 120.878 22.8054C120.734 22.7292 120.627 22.6168 120.595 22.5043C120.539 22.3121 120.634 22.0872 120.704 21.9221C120.846 21.5884 121.097 21.2982 121.325 21.0588C121.402 20.979 121.483 20.8702 121.554 20.7759C121.565 20.7614 121.576 20.745 121.588 20.7305C121.72 21.3055 121.878 21.9239 122.041 22.5424C121.99 22.6023 121.932 22.6621 121.852 22.7165ZM123.148 24.8857C123.123 24.971 123.103 25.0599 123.074 25.1433C123.052 25.0435 123.028 24.9347 123.003 24.8241C123.054 24.8458 123.101 24.8658 123.148 24.8857Z" fill="black"/>
<path d="M127.913 18.2077C127.911 18.2041 127.911 18.2005 127.91 18.1987V18.2059C127.911 18.2059 127.911 18.2059 127.913 18.2077Z" fill="black"/>
<path d="M58.1202 30.2329C59.4985 30.7661 61.1428 31.0345 63.053 31.0345C64.2066 31.0345 65.2947 30.9348 66.3153 30.7371C67.3472 30.5394 68.2967 30.2764 69.1637 29.9499C70.0308 29.6144 70.8136 29.2281 71.5065 28.7928C72.2013 28.3484 72.7931 27.8823 73.2837 27.3981V19.7152H66.7348C66.6674 19.1856 66.5812 18.5635 66.4838 17.9668L68.2892 15.4765C68.4315 15.7051 68.5551 15.9408 68.6581 16.1839L72.8249 14.9669C72.5084 14.1362 72.0796 13.3889 71.5384 12.7269C71.1189 12.1955 70.617 11.7276 70.0308 11.3213C70.0383 11.305 70.0458 11.2905 70.0533 11.2742L70.057 11.2651L70.0551 11.256C69.896 10.5233 68.0813 9.98279 67.3584 9.98098H67.3434L67.3341 9.99368C67.3191 10.0136 67.3097 10.0318 67.2966 10.0499C67.1262 10.0009 66.952 9.95378 66.7741 9.91025C65.7216 9.6527 64.5175 9.52393 63.1597 9.52393C62.2945 9.52393 61.4855 9.58015 60.7233 9.68897V9.67084L60.7046 9.66358C60.5922 9.61643 60.4405 9.59285 60.2514 9.59285C59.3824 9.59285 57.9985 10.0789 57.637 10.4272L57.6277 10.4362V10.4489C57.6258 10.4816 57.6277 10.5106 57.6277 10.5414C56.534 11.0148 55.5995 11.6387 54.8279 12.4186C53.9197 13.3382 53.2399 14.4554 52.7904 15.7703C52.3409 17.0853 52.1162 18.5598 52.1162 20.1904C52.1162 21.7629 52.326 23.212 52.7436 24.536C53.1724 25.8618 53.8316 27.0081 54.7193 27.9784C55.607 28.9379 56.74 29.6888 58.1202 30.2329ZM66.7011 22.949C66.7217 23.1268 66.7516 23.3281 66.7835 23.5512C66.8678 24.1352 66.9633 24.7972 66.9389 25.1962C66.9033 25.7621 66.7741 25.9634 66.6749 25.9634C66.5007 25.9634 66.0924 25.646 65.5194 24.7537C65.3134 24.4326 65.1692 24.1062 65.0306 23.7906C64.9033 23.5004 64.7778 23.2174 64.613 22.9508H66.7011V22.949ZM63.1092 14.265C63.1092 13.4107 63.847 12.7179 64.7553 12.7179C65.4276 12.7179 66.0063 13.0969 66.261 13.6411C66.4408 13.7299 66.6131 13.8242 66.7722 13.9294C67.0944 14.1308 67.3753 14.3593 67.6225 14.6132C67.2685 15.3496 66.9015 15.8665 66.2179 16.5938C66.216 16.5865 66.2142 16.5793 66.2123 16.572C66.1542 16.3344 65.8958 15.8483 65.7516 15.491C65.6018 15.598 65.4314 15.6833 65.2478 15.7377L65.2609 15.7413C65.4314 15.9372 65.7853 16.387 65.849 16.6536C66.0531 17.5024 66.2329 18.7503 66.3565 19.7134H63.8789V22.1564C63.7534 22.0784 63.6167 22.0385 63.4725 22.0385C63.1391 22.0385 62.817 22.2526 62.5754 22.4412L62.553 22.4611C62.2009 22.8402 61.8189 23.2791 61.4499 23.7017C61.1409 24.0572 60.8469 24.3927 60.581 24.6847C59.8675 25.4882 59.4854 25.5753 59.3543 25.5753C59.3468 25.5753 59.3394 25.5753 59.3319 25.5753C59.4686 24.9024 59.5716 24.2005 59.6727 23.5203C59.7944 22.6933 59.9105 21.9116 60.0791 21.1825C60.1765 20.3935 60.4555 19.1874 60.6634 18.3404C60.7064 18.3621 60.7495 18.373 60.7963 18.373C61.2346 18.373 61.3319 17.4299 61.3319 17.0998C61.3319 16.9474 61.317 16.8205 61.2889 16.7244C61.2683 16.6573 61.2421 16.6101 61.214 16.5738C61.3863 16.3834 61.6203 16.2002 61.8919 15.988C62.023 15.8864 62.1597 15.7794 62.3002 15.6652C62.523 15.482 63.0005 15.3042 63.2721 15.2154C63.3039 15.2099 63.3358 15.2027 63.3676 15.199L63.4706 15.228C63.244 14.9651 63.1092 14.6295 63.1092 14.265ZM60.2495 13.4851C60.8413 13.2348 61.5136 13.077 62.2646 13.0063C62.141 13.2584 62.0136 13.5068 61.8807 13.7626C61.5117 14.4772 61.1316 15.2172 60.8076 16.1639C60.433 15.3532 60.2027 14.3937 60.0641 13.5667C60.1259 13.5395 60.1858 13.5105 60.2495 13.4851ZM57.0471 17.2231C57.3018 16.3326 57.6951 15.5708 58.227 14.9379C58.5004 14.6114 58.8131 14.3248 59.1633 14.0782C59.2176 14.5787 59.285 15.083 59.3674 15.5201C59.5622 16.4432 59.9143 17.2213 60.39 17.7709L60.3937 17.7745C60.3956 17.7854 60.3974 17.7981 60.4012 17.8108C60.4031 17.8198 60.4049 17.8253 60.4068 17.8344C60.1971 18.6578 59.83 20.1686 59.7139 21.119C59.5454 21.8445 59.4274 22.6334 59.3038 23.4677C59.1952 24.195 59.0847 24.9477 58.9348 25.6569L58.9086 25.7784L59.0172 25.8455C59.4461 26.1085 60.0828 25.802 60.8619 24.9223C61.1297 24.6303 61.4237 24.293 61.7346 23.9357C62.0979 23.5185 62.4743 23.0869 62.8208 22.715C63.0137 22.5663 63.2609 22.4013 63.4744 22.4013C63.568 22.4013 63.6541 22.4339 63.7384 22.5028C63.789 22.5446 63.8358 22.5863 63.8807 22.628V22.949H64.1654C64.3845 23.2447 64.5287 23.5711 64.6879 23.9321C64.8321 24.2603 64.9819 24.5995 65.2029 24.9441C65.7909 25.86 66.2872 26.3243 66.6749 26.3243C67.2423 26.3243 67.2947 25.4918 67.3116 25.218C67.3378 24.7827 67.2404 24.1025 67.1543 23.5022C67.1262 23.3063 67.0981 23.1159 67.0775 22.9508H69.1487V25.8437C68.8828 26.0704 68.542 26.2935 68.1225 26.5112C67.7142 26.7179 67.2498 26.9065 66.7292 27.0752C66.2179 27.233 65.6617 27.3618 65.0606 27.4615C64.4575 27.5613 63.8302 27.6103 63.1766 27.6103C62.0642 27.6103 61.0979 27.4271 60.2813 27.0607C59.4648 26.6943 58.785 26.1847 58.2438 25.5336C57.7119 24.8806 57.3149 24.0989 57.049 23.1902C56.7943 22.2798 56.667 21.2822 56.667 20.194C56.6651 19.0931 56.7924 18.1028 57.0471 17.2231Z" fill="black"/>
<path d="M122.364 18.8354C122.739 18.8354 123.089 18.7393 123.393 18.5761C124.007 18.2424 124.423 17.6221 124.423 16.9075C124.423 15.8428 123.501 14.9795 122.366 14.9795C121.404 14.9795 120.597 15.6016 120.374 16.4395C120.334 16.5901 120.31 16.746 120.31 16.9075C120.31 17.4679 120.567 17.9721 120.975 18.324C121.119 18.4491 121.282 18.5525 121.46 18.6359C121.73 18.7629 122.037 18.8354 122.364 18.8354Z" fill="#E40E20"/>
<path d="M64.7555 15.8102C64.9278 15.8102 65.0926 15.7848 65.248 15.7394C65.4334 15.685 65.602 15.5998 65.7518 15.4928C66.1451 15.2098 66.4016 14.7655 66.4016 14.2649C66.4016 14.0436 66.3511 13.8314 66.2612 13.641C66.0065 13.0968 65.4278 12.7178 64.7555 12.7178C63.8454 12.7178 63.1094 13.4106 63.1094 14.2649C63.1094 14.6294 63.2442 14.965 63.4708 15.2298C63.7723 15.5834 64.2349 15.8102 64.7555 15.8102Z" fill="#E40E20"/>
<path d="M21.8343 30.5594C22.3624 30.3708 22.838 30.1332 23.265 29.8539C23.3737 29.8738 23.4973 29.8557 23.6021 29.7958C23.7107 29.7342 23.7838 29.6417 23.8081 29.5347C23.8156 29.5038 23.8175 29.473 23.8231 29.4422C23.9242 29.3569 24.0235 29.2699 24.1171 29.1792C24.7407 28.5752 25.2089 27.8497 25.5254 26.9991C25.8419 26.1394 26.0011 25.1799 26.0011 24.1207V9.83594H17.1936V11.8999C17.1337 12.0686 17.0738 12.2445 17.0138 12.4241C16.8603 12.8775 16.6992 13.3473 16.5269 13.759C16.2835 14.3358 16.0026 14.9107 15.731 15.4675C15.4819 15.979 15.2235 16.5068 14.995 17.0346C14.7947 17.4989 14.525 18.1699 14.2834 18.7866C14.2759 18.7939 14.2703 18.7993 14.2665 18.8011L14.274 18.8084C14.1767 19.0587 14.083 19.2981 13.9987 19.5139C13.7478 19.63 13.2983 19.8277 13.0249 19.902C12.8788 19.9419 12.7122 19.9873 12.5661 19.9728C12.2946 19.9456 12.0455 19.8585 11.8676 19.7261C11.6054 19.5339 11.4312 19.2219 11.2645 18.9208L11.229 18.8628C11.0436 18.5309 10.8113 17.8525 10.7383 17.6349C10.9481 17.4608 11.0904 17.2595 11.1803 17.0055C11.3451 16.5412 11.4219 16.193 11.4612 15.7214C11.4705 15.6217 11.5604 15.4784 11.641 15.3496C11.7758 15.132 11.9163 14.9071 11.8339 14.6858C11.7852 14.5552 11.6672 14.4573 11.4837 14.3956C11.2102 14.3031 10.6465 14.6659 10.4611 15.0504C10.4387 15.0957 10.4031 15.1936 10.3656 15.2952C10.36 15.3133 10.3525 15.3333 10.3432 15.3551C10.1727 15.1338 9.99109 14.7275 9.88247 14.4809C9.83939 14.3829 9.80007 14.294 9.76636 14.2269C9.74389 14.1798 9.71767 14.1163 9.68958 14.0474C9.55099 13.7064 9.3787 13.282 9.03599 13.3491C8.93112 13.369 8.84497 13.4307 8.79254 13.5214C8.68579 13.71 8.72324 14.0329 8.9049 14.4772C9.02476 14.771 9.11465 15.0758 9.15772 15.2553C8.33372 14.236 7.94044 13.8914 7.6614 13.9331C7.55466 13.9494 7.47226 14.022 7.4348 14.129C7.28686 14.5461 7.68762 15.0177 8.04157 15.4331C8.19701 15.6162 8.37492 15.8248 8.40113 15.9264C8.40488 15.9409 8.40675 15.9518 8.40863 15.9627C8.35806 15.9481 8.26817 15.9082 8.14831 15.8049C7.6202 15.3514 7.16326 15.2299 6.92167 15.4802C6.8374 15.5691 6.82616 15.658 6.83178 15.7178C6.84864 15.8974 7.01718 16.0189 7.29435 16.2184C7.59211 16.4324 8.00037 16.728 8.39926 17.2141C8.72137 17.5859 9.14836 17.6766 9.60156 17.7727C9.68021 17.7891 9.76261 17.8072 9.84314 17.8253L9.84876 17.8453C9.85812 17.8761 10.0772 18.6143 10.257 18.9752C10.4574 19.3779 10.7009 19.8367 11.0567 20.1995C11.2945 20.4425 11.5642 20.6257 11.8376 20.7291C12.0417 20.8071 12.2758 20.8452 12.5698 20.8452C12.5961 20.8452 12.6242 20.8452 12.6504 20.8452C12.8451 20.8415 13.0511 20.8035 13.2628 20.7327C13.3564 20.7019 13.4669 20.6547 13.5792 20.6003C13.3433 21.2641 12.6766 23.1921 12.4893 24.3202C12.4575 24.5089 12.4313 24.7011 12.4088 24.8934L11.1672 25.0693C11.3713 26.1466 11.6728 27.068 12.0717 27.828C12.1915 28.0492 12.3226 28.256 12.4612 28.4537C12.5549 29.045 12.7159 29.6108 12.9968 30.0062C13.0717 30.1114 13.1766 30.1785 13.3002 30.1985C13.3264 30.2021 13.3545 30.2057 13.3807 30.2057C13.5156 30.2057 13.6392 30.1531 13.7122 30.1005C13.8021 30.0352 13.8808 29.9681 13.95 29.8992C14.4988 30.2565 15.1224 30.5268 15.8247 30.7063C16.6711 30.924 17.6375 31.0328 18.7199 31.0328C19.8979 31.0346 20.9353 30.8768 21.8343 30.5594ZM21.4972 23.2157C21.4916 23.1939 21.4841 23.174 21.4784 23.1522C21.2968 22.4757 21.1938 21.772 21.1002 21.0864L21.4972 21.353V23.2157ZM14.1972 20.8724V20.9268C14.1935 20.896 14.1916 20.8669 14.1972 20.8724ZM13.4931 29.8122C13.4725 29.8267 13.4126 29.8521 13.3658 29.8448C13.3489 29.8412 13.3302 29.8357 13.3077 29.8049C13.1729 29.6145 13.0699 29.3696 12.9893 29.1012C13.186 29.3098 13.3976 29.4984 13.6223 29.6707C13.6298 29.6761 13.6373 29.6816 13.6448 29.687C13.5998 29.7287 13.5493 29.7704 13.4931 29.8122ZM16.0906 25.9163C15.9071 25.5118 15.7647 25.0167 15.6617 24.4327L12.8002 24.839C12.8189 24.6848 12.8395 24.5306 12.8639 24.3783C13.0811 23.0615 13.9557 20.6692 13.9632 20.6457C13.9912 20.8216 14.1411 20.925 14.1972 20.9776C14.1991 20.9794 14.1991 20.9776 14.1991 20.9776C14.4182 20.9758 14.5868 20.7817 14.7029 20.3972C14.7834 20.1269 14.8321 19.7841 14.8321 19.4794C14.8321 19.2092 14.7947 19.0133 14.7216 18.8882C15.04 18.6143 15.6599 18.0938 16.0587 17.8562C16.4333 17.6331 17.13 17.3574 17.3491 17.2722C17.1037 16.9548 16.9577 16.5666 16.9577 16.144C16.9577 15.0794 17.879 14.2161 19.0139 14.2161C19.1731 14.2161 19.3267 14.2342 19.4746 14.2668C19.4709 14.2287 19.439 13.9295 19.2536 13.4089C19.2424 13.3763 19.2237 13.3255 19.2012 13.262H21.4972V20.2031C21.1919 19.9401 20.9222 19.6826 20.881 19.6445C20.8398 19.416 20.7949 19.1856 20.7387 18.9571C20.6544 18.6016 20.3061 18.1355 20.0851 17.8634L20.072 17.7927C19.9503 17.8616 19.8229 17.9178 19.6862 17.9614C19.8979 18.208 20.2986 18.7231 20.3735 19.0369C20.5308 19.6898 20.6226 20.3591 20.7106 21.0066C20.8117 21.743 20.9166 22.5029 21.1151 23.2411C21.2312 23.6709 21.3567 24.0881 21.4878 24.4962C21.4504 25.4502 21.22 26.1956 20.7911 26.7288C20.6769 26.8758 20.5477 27.0027 20.4054 27.1115C19.8229 26.5638 19.1937 26.0886 18.439 25.8873C17.836 25.7259 17.1524 25.7875 16.6131 26.0541C16.4932 26.114 16.379 26.1829 16.2704 26.2555C16.2086 26.1503 16.1468 26.0378 16.0906 25.9163ZM17.6524 27.4435C17.3154 27.3256 17.0138 27.1424 16.7498 26.8939C16.6524 26.796 16.5606 26.6835 16.4726 26.5638C16.5719 26.4949 16.6749 26.4314 16.7835 26.3788C17.2367 26.1557 17.8322 26.1031 18.3416 26.2391C18.9896 26.4133 19.5551 26.8286 20.0833 27.3165C19.7125 27.5087 19.2724 27.6067 18.7574 27.6067C18.3566 27.6067 17.9895 27.5523 17.6524 27.4435Z" fill="black"/>
<path d="M90.53 30.7372V22.8004H95.8299L100.839 30.7372H105.924L100.088 21.9552C100.772 21.7974 101.405 21.5489 101.987 21.2134C102.57 20.8669 103.07 20.4425 103.489 19.9383C103.918 19.4341 104.25 18.861 104.486 18.2171C104.731 17.5642 104.853 16.8477 104.853 16.066C104.853 15.1066 104.684 14.2469 104.347 13.4851C104.021 12.7143 103.519 12.0614 102.845 11.5263C102.171 10.9822 101.328 10.5669 100.319 10.2803C99.3169 9.98285 98.1427 9.83594 96.7962 9.83594H86.013V18.7775C86.0055 18.8156 85.9962 18.8519 85.9887 18.8918C85.9418 18.7104 85.8744 18.3531 85.8445 17.9922C85.7902 17.3248 85.5973 16.9729 85.2883 16.9729C85.2564 16.9729 85.2246 16.9765 85.1927 16.9856C84.8463 17.0745 84.8837 17.5515 84.9156 17.9323C84.9212 18.0103 84.9287 18.0829 84.9287 18.1391C84.9287 18.2189 84.9343 18.3187 84.9399 18.4329C84.953 18.7231 84.9774 19.2074 84.9156 19.494C84.8931 19.4722 84.8706 19.4522 84.8519 19.4341C84.7676 19.3543 84.6871 19.2781 84.644 19.2437C84.3837 19.0387 84.0073 18.9662 83.7639 18.9662C83.5803 18.9662 83.4492 19.0043 83.3724 19.0786C83.2301 19.2165 83.1646 19.3597 83.1814 19.503C83.2077 19.7461 83.4474 19.8948 83.6796 20.0399C83.8238 20.1306 83.9755 20.2231 84.0317 20.3156C84.2957 20.7454 84.5354 21.041 84.9137 21.4092C85.0523 21.5434 85.2265 21.6432 85.395 21.7411C85.5336 21.8209 85.6647 21.8971 85.7658 21.9842C85.7939 22.2236 85.8295 22.726 85.7396 22.9527C85.6928 23.0724 85.6122 23.1685 85.5317 23.203C85.4025 23.2574 85.1927 23.2193 84.9811 23.1667C84.6272 23.076 84.3032 22.8747 84.0017 22.677C83.6009 22.414 82.9398 21.7992 82.7413 21.6142C82.6964 21.3711 82.6496 21.1263 82.5915 20.8851C82.4941 20.4824 82.172 19.8023 82.0054 19.4758C81.908 19.5357 81.805 19.5883 81.6982 19.6336C81.8911 19.9438 82.1496 20.6402 82.2282 20.9667C82.2638 21.119 82.2956 21.2714 82.3275 21.4237L82.4548 22.1964L82.5541 22.8167C82.5653 22.8965 82.5765 22.9763 82.5878 23.0543C82.6945 23.8324 82.805 24.6376 83.0166 25.4194C83.5803 27.5087 84.3126 29.3587 85.1909 30.9131C85.4737 31.4155 85.5504 31.702 85.4812 32.0086C85.4793 32.014 85.4699 32.0303 85.4437 32.0448C85.41 32.0648 85.3707 32.0684 85.3519 32.0648C84.498 31.8218 83.777 31.0818 83.0129 30.2982C82.6159 29.8902 82.2095 29.4784 81.775 29.123V26.2101H80.1214C79.5745 26.0288 78.9547 25.9272 78.6494 25.9036C78.537 25.8945 78.4041 25.9036 78.2618 25.9145C78.1644 25.9218 78.0614 25.929 77.9602 25.929C77.8123 25.929 77.7018 25.9127 77.6138 25.8746L77.5894 25.8655C77.5857 25.8637 77.2037 25.7585 76.7804 25.5227C76.5126 25.3722 76.3665 25.2996 76.2429 25.238C76.0744 25.1527 75.9508 25.0911 75.5894 24.8625C75.4302 24.761 75.1287 24.3747 75.0182 24.2114C74.8983 23.8305 74.7878 23.4533 75.4227 22.8602C75.6867 22.6135 75.8778 22.59 75.9471 22.59L76.0014 22.5954C76.125 22.5954 76.3553 22.5464 76.5033 22.2236C76.5819 22.0513 76.6269 21.8246 76.6269 21.587C76.6269 21.1499 76.4883 20.8452 76.2673 20.7617C76.6156 20.4625 77.2355 19.9474 77.64 19.7062C78.022 19.4794 78.8123 19.1584 79.1064 19.0405C78.8404 18.7195 78.6812 18.3205 78.6812 17.887C78.6812 16.8224 79.6326 15.959 80.8049 15.959C80.9716 15.959 81.1345 15.979 81.29 16.0116C81.2619 15.852 81.1795 15.4548 81.0203 15.005C80.9304 14.7529 80.4697 13.4742 80.2038 12.9972C80.1513 12.9029 80.1008 12.7905 80.0502 12.6817C79.9023 12.357 79.7974 12.123 79.5802 12.1194C79.4528 12.1248 79.3648 12.1883 79.2936 12.3298C79.0764 12.7578 78.876 13.3437 78.6644 13.9639C78.5015 14.4446 78.331 14.9397 78.1494 15.3768C77.8928 15.988 77.5932 16.5975 77.3048 17.1869C77.0407 17.7274 76.7673 18.286 76.5239 18.8465C76.3104 19.3398 76.0257 20.0508 75.7691 20.7055C75.7598 20.7146 75.7523 20.72 75.7504 20.7218L75.7598 20.7309C75.7092 20.8615 75.7298 20.8089 75.683 20.9322C75.6699 20.9993 75.6455 21.0157 75.595 21.0592C75.4302 21.2478 75.5032 21.1535 75.3459 21.3331C75.2523 21.4582 75.1418 21.5834 74.9901 21.6849C74.726 21.8645 74.5069 22.064 74.3402 22.278C74.1024 22.5845 73.9507 22.8747 73.8758 23.1649C73.7709 23.573 73.7634 23.9575 73.8571 24.2785C73.9788 24.6975 74.1792 25.2053 74.6324 25.5028C74.5762 25.8601 74.52 26.2011 74.4732 26.4894C74.3552 27.1986 74.1211 27.9205 73.8739 28.6858C73.8215 28.8473 73.7691 29.0105 73.7166 29.1719C73.6323 29.4367 73.4807 29.7723 73.3196 30.1259C72.8421 31.1815 72.3008 32.3786 73.1042 32.7232C73.1829 32.7576 73.2578 32.7721 73.329 32.7721C73.5968 32.7721 73.8215 32.5654 74.0556 32.3477C74.1867 32.228 74.3196 32.1029 74.4788 31.9904C74.8852 31.7039 75.1661 31.4028 75.4377 31.1126C75.5781 30.9621 75.7242 30.8061 75.8871 30.6519C76.3272 30.2348 76.8179 29.7922 77.346 29.4004V30.7317H81.7731V29.6018C82.1065 29.8956 82.4248 30.2221 82.7395 30.5431C83.5391 31.3629 84.2938 32.1373 85.2433 32.4076C85.365 32.442 85.5092 32.4221 85.631 32.3532C85.7433 32.2897 85.8182 32.1936 85.8426 32.0829C85.9475 31.6259 85.7939 31.2305 85.5167 30.7372C84.6534 29.2082 83.9324 27.3872 83.3762 25.325C83.1796 24.5941 83.0709 23.8324 82.9698 23.0924L84.0485 23.816C84.4418 24.0645 84.8519 24.1951 85.2339 24.1951C85.5205 24.1951 85.7864 24.1225 86.0168 23.9865V30.7299H90.53V30.7372ZM90.53 13.233H96.3205C97.5978 13.233 98.5772 13.4797 99.2607 13.9748C99.9555 14.47 100.302 15.2263 100.302 16.2438C100.302 16.7081 100.225 17.1343 100.072 17.5188C99.9181 17.9051 99.684 18.2407 99.3675 18.5272C99.0604 18.8047 98.6633 19.0224 98.1727 19.1802C97.6933 19.3289 97.1165 19.4033 96.4423 19.4033H90.53V13.233ZM77.3422 28.9579C76.7111 29.3968 76.1325 29.9155 75.6231 30.3998C75.4508 30.5612 75.3028 30.7208 75.1586 30.8768C74.889 31.1652 74.6343 31.4391 74.2578 31.7039C74.0799 31.8308 73.9301 31.9687 73.7971 32.092C73.5144 32.3532 73.387 32.4547 73.2541 32.3985C72.7915 32.2008 73.2934 31.089 73.6604 30.2783C73.8252 29.9137 73.9807 29.5691 74.0706 29.2844C74.123 29.123 74.1736 28.9615 74.226 28.8001C74.4788 28.022 74.7167 27.2857 74.8384 26.5511C74.8796 26.3008 74.9264 26.0124 74.9751 25.7077C76.1137 26.3316 76.8797 26.6853 77.125 26.7941C77.1606 26.9628 77.1493 27.0735 77.1362 27.1895C77.1156 27.3618 77.095 27.5414 77.228 27.8298C77.2692 27.9368 77.3067 28.0438 77.3441 28.149V28.9579H77.3422Z" fill="black"/>
<path d="M44.3801 17.9197C44.0374 16.8514 43.1797 15.6598 42.7359 15.1773C43.0674 14.586 42.8052 13.915 42.6741 13.652C42.4756 13.2784 42.3576 12.9628 42.2696 12.7324C42.1497 12.4132 42.0823 12.2373 41.9344 12.2373C41.9138 12.2373 41.8932 12.2409 41.8688 12.2482C41.6703 12.3117 41.6385 12.6345 41.7827 13.0879C41.8351 13.2512 41.837 13.3981 41.7883 13.4615C41.7508 13.5123 41.6815 13.4996 41.5991 13.4343C41.5092 13.3636 41.4137 13.1732 41.3126 12.9718C41.1291 12.6073 40.9212 12.1938 40.6197 12.1666C40.5541 12.1593 40.5204 12.1901 40.5036 12.2155C40.3912 12.3951 40.7171 13.0462 41.0504 13.6611C41.0785 13.7137 41.101 13.7554 41.1141 13.7789C41.1047 13.8261 41.0785 13.8479 41.0354 13.8479C41.0073 13.8479 40.9811 13.8388 40.968 13.8334C40.9212 13.8134 40.7901 13.7173 40.6365 13.5885C40.4961 13.2113 40.2751 12.6345 40.1272 12.3715C40.086 12.299 40.0485 12.2155 40.0111 12.1339C39.8968 11.8818 39.8051 11.6823 39.6122 11.6787C39.5354 11.6678 39.4305 11.7077 39.3519 11.8637C39.1833 12.1938 39.0316 12.6417 38.8706 13.1151C38.8125 13.2874 38.7526 13.4615 38.6908 13.6338C38.6739 13.5849 38.6365 13.5559 38.5747 13.5559C38.305 13.5559 37.5821 14.1308 37.2731 14.3775C37.2263 14.4156 37.1888 14.4446 37.1664 14.4609C37.1345 14.4609 37.1121 14.4518 37.0971 14.4355C37.0746 14.4083 37.0746 14.3648 37.0821 14.3321C37.0989 14.2523 37.2843 13.9041 37.4922 13.6066C37.6065 13.4434 37.7919 13.1423 37.7413 12.9682C37.7263 12.9192 37.6964 12.8848 37.6477 12.8648C37.6289 12.8576 37.6102 12.854 37.5915 12.854C37.4417 12.854 37.2825 13.0807 37.1533 13.2639C37.1177 13.3146 37.0821 13.3636 37.054 13.3981C37.0165 13.4452 36.9697 13.5069 36.9192 13.5758C36.7188 13.8442 36.4173 14.2451 36.2038 14.3122C36.1925 14.2686 36.1794 14.1598 36.1701 14.0837C36.1588 14.0002 36.1495 13.9222 36.1401 13.8823C36.0727 13.5831 35.7431 13.2802 35.597 13.2802C35.5933 13.2802 35.5895 13.2802 35.5858 13.2802C35.4659 13.2929 35.3873 13.331 35.3442 13.3944C35.2693 13.5087 35.3273 13.6756 35.3873 13.8515C35.4341 13.9857 35.4809 14.1217 35.4659 14.2287C35.4135 14.5969 35.4097 14.8781 35.4547 15.2626C35.4772 15.453 35.5408 15.6054 35.6701 15.7613C35.6195 15.8303 34.9678 16.7135 34.5614 17.517V9.83594H30.0425V22.9055C30.0425 24.3293 30.2672 25.5554 30.7167 26.5838C31.1755 27.6121 31.8085 28.4573 32.6156 29.1211C33.4321 29.7741 34.4022 30.2583 35.5259 30.5757C36.6495 30.8822 37.8836 31.0364 39.232 31.0364C40.6403 31.0364 41.9325 30.8732 43.1067 30.5467C44.2903 30.2112 45.3128 29.7015 46.1705 29.0196C47.0282 28.3267 47.6968 27.458 48.1781 26.4078C48.6593 25.3577 48.8972 24.1189 48.8972 22.6843V9.83594H44.3783V17.9197H44.3801ZM37.6196 14.8508C37.672 14.7529 37.8443 14.6223 38.0278 14.4845C38.2095 14.3485 38.4024 14.1997 38.5353 14.0474C38.5166 14.0963 38.496 14.1471 38.4773 14.1943C38.3818 14.4228 38.2769 14.6495 38.172 14.8744C38.1177 14.898 38.0634 14.9234 38.0072 14.9542C37.893 15.0141 37.7862 15.0485 37.7038 15.0485C37.6664 15.0485 37.6177 15.0413 37.5952 15.0068C37.5746 14.9742 37.584 14.9198 37.6196 14.8508ZM35.1775 17.9469C35.4079 17.2758 35.9847 16.3327 36.1944 16.0007C36.2206 16.0026 36.2487 16.0044 36.2731 16.0062C36.4285 16.0171 36.5765 16.0279 36.7113 16.0279C37.0184 16.0279 37.23 15.9681 37.4192 15.8303C37.569 15.7124 37.7151 15.6162 37.8537 15.5346C37.8462 15.5491 37.8387 15.5655 37.8312 15.58C37.6289 15.9935 37.4211 16.4197 37.2357 16.8477C37.0727 17.2232 36.8574 17.7619 36.6626 18.2606C36.6607 18.2624 36.657 18.2661 36.6551 18.2679L36.6589 18.2715C36.5765 18.4819 36.4959 18.6868 36.4266 18.8664C36.2955 18.8519 36.1851 18.8428 36.0933 18.8356C35.7693 18.8102 35.6045 18.7975 35.215 18.6216C35.1663 18.5998 35.1344 18.5617 35.1157 18.5037C35.0745 18.3749 35.1064 18.1754 35.1775 17.9469ZM35.0801 24.8027C35.0839 24.9677 35.0914 25.1491 35.1045 25.3359C35.0296 25.1799 34.9603 25.0185 34.9004 24.848C34.6756 24.206 34.5633 23.4442 34.5633 22.5646V19.0333C34.9565 19.4141 35.4453 19.5629 35.818 19.5629H35.8461C35.8854 19.5629 35.9379 19.5683 35.9922 19.5756C36.0465 19.581 36.1008 19.5865 36.1495 19.5883C36.0502 19.8621 35.3817 21.7248 35.2112 22.7604C35.1026 23.4079 35.0614 24.0772 35.0801 24.8027ZM41.3781 27.311C40.7658 27.5087 40.0916 27.6085 39.3575 27.6085C38.6327 27.6085 37.9735 27.5142 37.3817 27.3274C37.1345 27.2458 36.9079 27.1406 36.6907 27.0227C36.7712 26.9012 36.8405 26.776 36.9098 26.6472C36.9885 26.5003 37.0709 26.3462 37.1795 26.1865C37.2338 26.1067 37.2881 26.0269 37.3424 25.9453C37.7338 25.3631 38.1383 24.7592 38.7357 24.4653C39.0953 24.2894 39.5691 24.2459 39.9717 24.3547C40.7508 24.5633 41.3838 25.2126 41.9962 25.8401C42.2452 26.0959 42.4887 26.3443 42.7396 26.5656C42.3482 26.8848 41.8969 27.1369 41.3781 27.311ZM43.0149 26.3135C42.764 26.0959 42.5186 25.8456 42.2677 25.588C41.6216 24.9242 40.9512 24.2386 40.071 24.0028C39.5747 23.8686 39.011 23.9212 38.5653 24.1407C37.878 24.4798 37.4454 25.1237 37.0278 25.7476C36.9735 25.8274 36.921 25.9072 36.8667 25.987C36.7469 26.163 36.657 26.3316 36.5765 26.4804C36.5072 26.6091 36.4454 26.7234 36.3723 26.8304C36.1925 26.7071 36.0184 26.5765 35.8629 26.4241C35.7543 26.3171 35.6532 26.2011 35.5577 26.0795C35.4734 25.5608 35.4584 25.0403 35.4528 24.7972C35.4341 24.0935 35.4753 23.446 35.5802 22.8185C35.7393 21.859 36.3648 20.0888 36.4903 19.7406C36.5053 19.8404 36.5334 19.9311 36.5727 19.9691C36.6195 20.0145 36.6682 20.0381 36.7169 20.0381C36.9697 20.0381 37.1102 19.3888 37.1102 18.9408C37.1102 18.783 37.0915 18.5345 36.9866 18.4656C37.1982 18.2806 37.79 17.7746 38.1514 17.5587C38.4529 17.3792 39.0148 17.1561 39.1908 17.0872C39.0073 16.8332 38.9005 16.5267 38.9005 16.1984C38.9005 15.3224 39.659 14.6133 40.5935 14.6133C41.2658 14.6133 41.8463 14.9833 42.1198 15.5147C42.2115 15.4983 42.3014 15.482 42.3819 15.4784C42.5093 15.6507 43.5936 17.2558 43.7659 18.4674C43.8314 19.0405 43.485 18.9517 43.161 18.9517C42.9812 18.9517 42.6872 18.9498 42.4381 18.8882C42.3464 18.8646 42.1759 18.861 42.0692 18.8374C42.0299 18.6143 42.0149 18.6361 41.9624 18.413C41.9138 18.208 41.7134 17.7999 41.5486 17.5098C41.4306 17.5841 41.3032 17.644 41.1665 17.6893C41.3332 17.9269 41.5504 18.2896 41.5991 18.4946C41.7265 19.0224 41.7995 19.5629 41.8726 20.0888C41.955 20.6856 42.0392 21.3022 42.2003 21.9007C42.573 23.281 43.0411 24.5216 43.5936 25.6025C43.4232 25.8655 43.2303 26.1031 43.0149 26.3135ZM44.3801 22.4158C44.3801 23.3154 44.2584 24.0917 44.0131 24.7446C43.9513 24.9061 43.8857 25.062 43.8108 25.2108C43.3183 24.206 42.8969 23.067 42.558 21.8082C42.4025 21.2315 42.3183 20.6257 42.2396 20.0399C42.2228 19.9111 42.204 19.7805 42.1853 19.6499C42.4063 19.6898 42.8351 19.7569 43.2546 19.7569C43.8108 19.7569 44.1741 19.6427 44.3333 19.4178C44.3502 19.3924 44.3652 19.367 44.3801 19.3416V22.4158Z" fill="black"/>
<path d="M40.5933 17.7817C40.7937 17.7817 40.9847 17.7472 41.1627 17.6874C41.2994 17.642 41.4267 17.5822 41.5447 17.5078C41.9923 17.2231 42.2863 16.7406 42.2863 16.1965C42.2863 15.9517 42.2245 15.7195 42.1196 15.5127C41.8462 14.9795 41.2675 14.6113 40.5933 14.6113C39.6588 14.6113 38.9004 15.3205 38.9004 16.1965C38.9004 16.5266 39.0071 16.8313 39.1907 17.0852C39.4959 17.506 40.0091 17.7817 40.5933 17.7817Z" fill="#E40E20"/>
<path d="M19.0138 18.0718C19.2497 18.0718 19.4763 18.0319 19.688 17.9629C19.8228 17.9194 19.952 17.8614 20.0738 17.7943C20.6712 17.4569 21.0719 16.8457 21.0719 16.1438C21.0719 15.2279 20.3884 14.4625 19.4745 14.2666C19.3265 14.234 19.173 14.2158 19.0138 14.2158C17.877 14.2158 16.9575 15.0791 16.9575 16.1438C16.9575 16.5664 17.1036 16.9545 17.3489 17.2719C17.7216 17.7544 18.3284 18.0718 19.0138 18.0718Z" fill="#E40E20"/>
<path d="M78.6753 17.8905C78.6753 18.324 78.8345 18.723 79.1004 19.044C79.4881 19.5138 80.1042 19.8185 80.799 19.8185C81.1192 19.8185 81.4226 19.7514 81.6941 19.6371C81.8009 19.5918 81.9039 19.5392 82.0013 19.4793C82.5575 19.1311 82.9226 18.5507 82.9226 17.8923C82.9226 16.98 82.2222 16.2165 81.284 16.017C81.1286 15.9843 80.9656 15.9644 80.799 15.9644C79.6266 15.9644 78.6753 16.8259 78.6753 17.8905Z" fill="#E40E20"/>
<path d="M0 0V41.0661H47.1536V38.6175H2.52632V2.4467H135.474V38.6175H90.116V41.0661H138V0H0Z" fill="#E40E20"/>
<path d="M58.476 38.5849C58.0827 38.0027 57.6257 37.7524 56.8804 37.7524C55.4702 37.7524 54.5376 38.7971 54.5376 40.3714C54.5376 41.9276 55.429 42.9215 56.8186 42.9215C57.5227 42.9215 58.0508 42.6603 58.4572 42.118L58.446 42.7002C58.4366 43.5346 58.2494 44.046 57.2643 44.046C56.6219 44.046 56.2998 43.8447 56.1856 43.3822H54.7249C54.8691 44.4668 55.6893 44.9982 57.2325 44.9982C58.9741 44.9982 59.8655 44.2546 59.8655 42.5298V37.8921H58.476V38.5849ZM57.2325 41.8587C56.4665 41.8587 55.989 41.2765 55.989 40.3624C55.989 39.4192 56.4459 38.857 57.2231 38.857C58.0003 38.857 58.4666 39.4084 58.4666 40.3334C58.4647 41.2747 57.989 41.8587 57.2325 41.8587Z" fill="black"/>
<path d="M62.4873 38.846V37.892H61.0884V43.072H62.5603V40.7033C62.5603 39.7583 62.9536 39.0564 63.9705 39.0564C64.1372 39.0564 64.2814 39.0655 64.5398 39.1163V37.8013C64.3956 37.7814 64.332 37.7705 64.2177 37.7705C63.4199 37.7723 62.8188 38.1732 62.4873 38.846Z" fill="black"/>
<path d="M67.5458 37.7432C65.866 37.7432 64.7573 38.8368 64.7573 40.4837C64.7573 42.1396 65.8566 43.2333 67.5252 43.2333C69.1938 43.2333 70.2819 42.1487 70.2819 40.4837C70.2819 38.8368 69.1938 37.7432 67.5458 37.7432ZM67.5252 42.1595C66.7068 42.1595 66.2293 41.5465 66.2293 40.4837C66.2293 39.4499 66.7162 38.8278 67.5046 38.8278C68.323 38.8278 68.8099 39.4408 68.8099 40.4746C68.8099 41.5356 68.3342 42.1595 67.5252 42.1595Z" fill="black"/>
<path d="M74.8029 40.5617C74.8029 41.3453 74.5651 42.0272 73.6418 42.0272C72.8028 42.0272 72.7392 41.5049 72.7392 40.8537V37.8919H71.2578V41.3743C71.2578 42.6076 71.9732 43.2206 73.1231 43.2206C73.889 43.2206 74.4602 42.9105 74.8647 42.3374V43.0701H76.2636V37.8901H74.8029V40.5617Z" fill="black"/>
<path d="M80.4414 37.7524C79.7578 37.7524 79.1773 38.0027 78.7821 38.536V37.8939H77.3926V44.9093H78.8533V42.43C79.2466 42.9614 79.8271 43.2026 80.5013 43.2026C81.9002 43.2026 82.8235 42.138 82.8235 40.5129C82.8254 38.8461 81.8815 37.7524 80.4414 37.7524ZM80.0893 42.089C79.2803 42.089 78.8046 41.4978 78.8046 40.493C78.8046 39.4882 79.2822 38.8969 80.0799 38.8969C80.8684 38.8969 81.3553 39.499 81.3553 40.5129C81.3534 41.4959 80.8759 42.089 80.0893 42.089Z" fill="black"/>
</svg>
