<svg width="170" height="170" viewBox="0 0 170 170" fill="none" xmlns="http://www.w3.org/2000/svg">
<path d="M27.92 75.25C29.0639 75.213 30.1957 75.4933 31.19 76.06C32.079 76.6019 32.7912 77.3906 33.24 78.33C33.9706 77.7375 34.7389 77.193 35.54 76.7C36.1094 76.3428 36.7082 76.0351 37.33 75.78C37.7889 75.5832 38.2687 75.4389 38.76 75.35C39.1498 75.2818 39.5444 75.245 39.94 75.24C40.8376 75.1734 41.7387 75.3095 42.5765 75.6384C43.4144 75.9673 44.1674 76.4805 44.78 77.14C45.9546 78.7086 46.5324 80.6441 46.41 82.6V96.67H42V83.24C42.0958 82.2577 41.8252 81.2747 41.24 80.48C40.9451 80.1902 40.592 79.9664 40.2042 79.8233C39.8163 79.6802 39.4024 79.6211 38.99 79.65C38.237 79.6715 37.4986 79.863 36.83 80.21C35.8615 80.7069 34.9496 81.3071 34.11 82C34.11 82.32 34.11 82.6 34.17 82.86C34.23 83.12 34.17 83.4 34.17 83.71V96.71H29.73V83.16C29.784 82.6732 29.7393 82.1805 29.5984 81.7114C29.4575 81.2423 29.2233 80.8064 28.91 80.43C28.6448 80.1748 28.3313 79.9752 27.9878 79.8429C27.6443 79.7107 27.2779 79.6485 26.91 79.66C26.1378 79.6613 25.3733 79.8142 24.66 80.11C23.7239 80.5406 22.8328 81.0632 22 81.67V96.67H17.52V75.48H21.57L21.95 77.66C23.0246 76.8218 24.2176 76.1478 25.49 75.66C26.2795 75.3907 27.106 75.2457 27.94 75.23" fill="white"/>
<path d="M99.8399 89.19C99.9076 90.2273 99.7654 91.2677 99.4217 92.2488C99.0781 93.2299 98.5401 94.1316 97.8399 94.9C97.1672 95.5549 96.3679 96.0656 95.491 96.4009C94.6141 96.7362 93.6779 96.889 92.7399 96.85C91.8584 96.8268 90.9839 96.6855 90.1399 96.43C88.8828 96.0298 87.6828 95.4685 86.5699 94.76L86.1499 96.64H82.1499V66H86.6099V77.45C87.8135 76.7146 89.0946 76.1143 90.4299 75.66C91.26 75.3838 92.1256 75.2289 92.9999 75.2C93.954 75.1187 94.914 75.2566 95.8066 75.6033C96.6993 75.9499 97.5008 76.4961 98.1499 77.2C99.3397 78.8082 99.9272 80.783 99.8099 82.78L99.8399 89.19ZM95.3699 83.45C95.4308 82.9158 95.3834 82.3748 95.2304 81.8594C95.0775 81.3439 94.8223 80.8646 94.4799 80.45C93.8631 79.8835 93.0467 79.5849 92.2099 79.62C91.2851 79.6556 90.3784 79.8874 89.5499 80.3C88.5349 80.7777 87.5528 81.3222 86.6099 81.93V90.67C87.0207 90.9544 87.4597 91.1956 87.9199 91.39C88.4199 91.62 88.9199 91.83 89.4399 92.01C89.9241 92.1933 90.4224 92.3371 90.9299 92.44C91.3541 92.5298 91.7863 92.5767 92.2199 92.58C92.6357 92.5924 93.0497 92.5199 93.4366 92.3668C93.8235 92.2138 94.1751 91.9835 94.4699 91.69C94.8116 91.2747 95.0671 90.7956 95.2216 90.2805C95.3762 89.7655 95.4266 89.2248 95.3699 88.69V83.45Z" fill="white"/>
<path d="M104.54 69.37C104.532 69.0262 104.594 68.6843 104.721 68.3647C104.848 68.0451 105.038 67.7545 105.28 67.51C105.51 67.2683 105.788 67.0768 106.097 66.9477C106.405 66.8187 106.736 66.7547 107.07 66.76C107.41 66.7516 107.749 66.8139 108.064 66.943C108.379 67.0721 108.663 67.2652 108.9 67.51C109.375 68.013 109.639 68.6784 109.639 69.37C109.639 70.0616 109.375 70.7271 108.9 71.23C108.663 71.4749 108.379 71.6679 108.064 71.797C107.749 71.9261 107.41 71.9884 107.07 71.98C106.736 71.9853 106.405 71.9214 106.097 71.7923C105.788 71.6632 105.51 71.4718 105.28 71.23C105.038 70.9856 104.848 70.6949 104.721 70.3754C104.594 70.0558 104.532 69.7139 104.54 69.37ZM104.9 96.63V75.45H109.37V96.63H104.9Z" fill="white"/>
<path d="M118.79 75.4401V88.7001C118.737 89.2423 118.798 89.7897 118.97 90.3066C119.143 90.8234 119.422 91.2982 119.79 91.7001C120.433 92.2649 121.264 92.5682 122.12 92.5501C123.673 92.5501 125.537 91.7801 127.71 90.2401V75.4301H132.18V96.6101H128.18L127.76 94.6101C126.536 95.4158 125.211 96.0579 123.82 96.5201C122.991 96.763 122.134 96.8974 121.27 96.9201C120.308 96.9908 119.343 96.8371 118.451 96.4709C117.559 96.1047 116.765 95.5361 116.13 94.8101C114.907 93.1809 114.295 91.1743 114.4 89.1401V75.4401H118.79Z" fill="white"/>
<path d="M144 96.86C142.51 96.8596 141.025 96.6748 139.58 96.31C137.949 95.8342 136.439 95.016 135.15 93.91L137.59 90.61C138.511 91.4271 139.59 92.0466 140.76 92.43C141.852 92.7627 142.988 92.9279 144.13 92.92C145.047 92.9375 145.953 92.717 146.76 92.28C147.126 92.0947 147.431 91.8071 147.637 91.4521C147.842 91.0971 147.941 90.6899 147.92 90.28C147.938 89.9637 147.879 89.6478 147.746 89.36C147.614 89.0723 147.412 88.8215 147.16 88.63C146.479 88.2076 145.715 87.938 144.92 87.84C143.92 87.67 142.92 87.48 141.85 87.27C140.867 87.0618 139.916 86.7256 139.02 86.27C138.224 85.881 137.532 85.3086 137 84.6C136.426 83.7493 136.145 82.7347 136.2 81.71C136.187 80.7529 136.403 79.8066 136.83 78.95C137.246 78.1684 137.825 77.4861 138.53 76.95C139.268 76.3799 140.101 75.9433 140.99 75.66C141.944 75.3562 142.939 75.2044 143.94 75.21C145.395 75.1915 146.846 75.3561 148.26 75.7C149.61 76.0603 150.88 76.6746 152 77.51L149.81 80.89C148.906 80.286 147.91 79.8334 146.86 79.55C145.913 79.3023 144.938 79.1779 143.96 79.18C143.064 79.1298 142.179 79.3874 141.45 79.91C141.177 80.1072 140.953 80.3652 140.797 80.6638C140.641 80.9623 140.556 81.2931 140.55 81.63C140.537 81.929 140.614 82.2249 140.771 82.4797C140.928 82.7345 141.157 82.9366 141.43 83.06C142.132 83.3965 142.875 83.6386 143.64 83.78C144.53 83.97 145.49 84.16 146.53 84.36C147.53 84.5459 148.502 84.862 149.42 85.3C150.293 85.7195 151.051 86.3439 151.63 87.12C152.268 88.0536 152.58 89.1711 152.52 90.3C152.534 91.2627 152.31 92.214 151.87 93.07C151.412 93.8875 150.772 94.5889 150 95.12C149.174 95.7034 148.254 96.1398 147.28 96.41C146.197 96.7155 145.076 96.867 143.95 96.86" fill="white"/>
<path d="M74.0701 87.94C74.0701 87.94 77.7601 82.79 77.0701 77.43C76.3801 72.07 69.4101 68.26 69.4101 68.26C69.4101 68.26 66.9201 66.78 66.1901 67.65C65.4601 68.52 65.3201 71.88 65.3201 71.88L65.0601 79.2C65.0601 79.2 68.6001 81.03 74.0601 87.94" fill="white"/>
<path d="M65.5199 67.65L53.3299 77C52.643 77.4746 52.0593 78.0834 51.6141 78.7898C51.169 79.4962 50.8716 80.2855 50.7399 81.11C50.5185 82.8005 50.4615 84.5085 50.5699 86.21C50.6799 87.6 50.8699 91.68 53.2099 93.93C55.5499 96.18 59.1299 97.05 64.6499 95C64.6499 95 63.7599 69.78 65.5199 67.63" fill="white"/>
<path d="M74.17 102.36C74.17 102.36 76.35 100.67 76.74 95.3601C77.13 90.0501 77.59 79.6801 77.59 79.6801C77.3763 82.4312 76.5215 85.0941 75.0941 87.4556C73.6668 89.8172 71.7064 91.8119 69.37 93.2801C61.37 98.3701 56.2 96.6401 54.54 95.6601C54.54 95.6601 65.61 102.61 69.21 103.81C70.0541 104.016 70.9363 104.005 71.7752 103.78C72.6142 103.554 73.3828 103.121 74.01 102.52C75.28 101.52 74.17 102.37 74.17 102.37" fill="white"/>
</svg>
