<svg width="310" height="392" viewBox="0 0 310 392" fill="none" xmlns="http://www.w3.org/2000/svg">
<g filter="url(#filter0_d)">
<rect x="15" y="13" width="280" height="362" rx="15" fill="white"/>
</g>
<path d="M45.456 187.8V199H43.376V194.2H37.584V199H35.504V187.8H37.584V192.424H43.376V187.8H45.456ZM56.2971 194.776C56.2971 194.915 56.2865 195.112 56.2651 195.368H49.5611C49.6785 195.997 49.9825 196.499 50.4731 196.872C50.9745 197.235 51.5931 197.416 52.3291 197.416C53.2678 197.416 54.0411 197.107 54.6491 196.488L55.7211 197.72C55.3371 198.179 54.8518 198.525 54.2651 198.76C53.6785 198.995 53.0171 199.112 52.2811 199.112C51.3425 199.112 50.5158 198.925 49.8011 198.552C49.0865 198.179 48.5318 197.661 48.1371 197C47.7531 196.328 47.5611 195.571 47.5611 194.728C47.5611 193.896 47.7478 193.149 48.1211 192.488C48.5051 191.816 49.0331 191.293 49.7051 190.92C50.3771 190.547 51.1345 190.36 51.9771 190.36C52.8091 190.36 53.5505 190.547 54.2011 190.92C54.8625 191.283 55.3745 191.8 55.7371 192.472C56.1105 193.133 56.2971 193.901 56.2971 194.776ZM51.9771 191.96C51.3371 191.96 50.7931 192.152 50.3451 192.536C49.9078 192.909 49.6411 193.411 49.5451 194.04H54.3931C54.3078 193.421 54.0465 192.92 53.6091 192.536C53.1718 192.152 52.6278 191.96 51.9771 191.96ZM58.2183 190.456H60.2183V199H58.2183V190.456ZM59.2263 189.048C58.8636 189.048 58.5596 188.936 58.3143 188.712C58.0689 188.477 57.9463 188.189 57.9463 187.848C57.9463 187.507 58.0689 187.224 58.3143 187C58.5596 186.765 58.8636 186.648 59.2263 186.648C59.5889 186.648 59.8929 186.76 60.1383 186.984C60.3836 187.197 60.5063 187.469 60.5063 187.8C60.5063 188.152 60.3836 188.451 60.1383 188.696C59.9036 188.931 59.5996 189.048 59.2263 189.048ZM65.4833 199.112C64.7899 199.112 64.1126 199.021 63.4513 198.84C62.7899 198.659 62.2619 198.429 61.8673 198.152L62.6353 196.632C63.0193 196.888 63.4779 197.096 64.0113 197.256C64.5553 197.405 65.0886 197.48 65.6113 197.48C66.8059 197.48 67.4033 197.165 67.4033 196.536C67.4033 196.237 67.2486 196.029 66.9393 195.912C66.6406 195.795 66.1553 195.683 65.4833 195.576C64.7793 195.469 64.2033 195.347 63.7553 195.208C63.3179 195.069 62.9339 194.829 62.6033 194.488C62.2833 194.136 62.1233 193.651 62.1233 193.032C62.1233 192.221 62.4593 191.576 63.1313 191.096C63.8139 190.605 64.7313 190.36 65.8833 190.36C66.4699 190.36 67.0566 190.429 67.6433 190.568C68.2299 190.696 68.7099 190.872 69.0833 191.096L68.3153 192.616C67.5899 192.189 66.7739 191.976 65.8673 191.976C65.2806 191.976 64.8326 192.067 64.5233 192.248C64.2246 192.419 64.0753 192.648 64.0753 192.936C64.0753 193.256 64.2353 193.485 64.5553 193.624C64.8859 193.752 65.3926 193.875 66.0753 193.992C66.7579 194.099 67.3179 194.221 67.7553 194.36C68.1926 194.499 68.5659 194.733 68.8753 195.064C69.1953 195.395 69.3553 195.864 69.3553 196.472C69.3553 197.272 69.0086 197.912 68.3153 198.392C67.6219 198.872 66.6779 199.112 65.4833 199.112ZM79.1096 194.776C79.1096 194.915 79.099 195.112 79.0776 195.368H72.3736C72.491 195.997 72.795 196.499 73.2856 196.872C73.787 197.235 74.4056 197.416 75.1416 197.416C76.0803 197.416 76.8536 197.107 77.4616 196.488L78.5336 197.72C78.1496 198.179 77.6643 198.525 77.0776 198.76C76.491 198.995 75.8296 199.112 75.0936 199.112C74.155 199.112 73.3283 198.925 72.6136 198.552C71.899 198.179 71.3443 197.661 70.9496 197C70.5656 196.328 70.3736 195.571 70.3736 194.728C70.3736 193.896 70.5603 193.149 70.9336 192.488C71.3176 191.816 71.8456 191.293 72.5176 190.92C73.1896 190.547 73.947 190.36 74.7896 190.36C75.6216 190.36 76.363 190.547 77.0136 190.92C77.675 191.283 78.187 191.8 78.5496 192.472C78.923 193.133 79.1096 193.901 79.1096 194.776ZM74.7896 191.96C74.1496 191.96 73.6056 192.152 73.1576 192.536C72.7203 192.909 72.4536 193.411 72.3576 194.04H77.2056C77.1203 193.421 76.859 192.92 76.4216 192.536C75.9843 192.152 75.4403 191.96 74.7896 191.96ZM85.8788 190.36C86.9561 190.36 87.8201 190.675 88.4708 191.304C89.1214 191.933 89.4468 192.867 89.4468 194.104V199H87.4468V194.36C87.4468 193.613 87.2708 193.053 86.9188 192.68C86.5668 192.296 86.0654 192.104 85.4148 192.104C84.6788 192.104 84.0974 192.328 83.6708 192.776C83.2441 193.213 83.0308 193.848 83.0308 194.68V199H81.0308V190.456H82.9348V191.56C83.2654 191.165 83.6814 190.867 84.1828 190.664C84.6841 190.461 85.2494 190.36 85.8788 190.36ZM96.7199 190.36C97.5519 190.36 98.2932 190.541 98.9439 190.904C99.6052 191.267 100.123 191.779 100.496 192.44C100.869 193.101 101.056 193.864 101.056 194.728C101.056 195.592 100.869 196.36 100.496 197.032C100.123 197.693 99.6052 198.205 98.9439 198.568C98.2932 198.931 97.5519 199.112 96.7199 199.112C96.1332 199.112 95.5945 199.011 95.1039 198.808C94.6239 198.605 94.2185 198.301 93.8879 197.896V199H91.9839V187.128H93.9839V191.496C94.3252 191.123 94.7252 190.84 95.1839 190.648C95.6532 190.456 96.1652 190.36 96.7199 190.36ZM96.4959 197.4C97.2319 197.4 97.8345 197.155 98.3039 196.664C98.7839 196.173 99.0239 195.528 99.0239 194.728C99.0239 193.928 98.7839 193.283 98.3039 192.792C97.8345 192.301 97.2319 192.056 96.4959 192.056C96.0159 192.056 95.5839 192.168 95.1999 192.392C94.8159 192.605 94.5119 192.915 94.2879 193.32C94.0639 193.725 93.9519 194.195 93.9519 194.728C93.9519 195.261 94.0639 195.731 94.2879 196.136C94.5119 196.541 94.8159 196.856 95.1999 197.08C95.5839 197.293 96.0159 197.4 96.4959 197.4ZM111.225 190.456V199H109.321V197.912C109.001 198.296 108.601 198.595 108.121 198.808C107.641 199.011 107.123 199.112 106.569 199.112C105.427 199.112 104.526 198.797 103.865 198.168C103.214 197.528 102.889 196.584 102.889 195.336V190.456H104.889V195.064C104.889 195.832 105.059 196.408 105.401 196.792C105.753 197.165 106.249 197.352 106.889 197.352C107.603 197.352 108.169 197.133 108.585 196.696C109.011 196.248 109.225 195.608 109.225 194.776V190.456H111.225ZM122.323 190.456V197.704C122.323 200.712 120.787 202.216 117.715 202.216C116.894 202.216 116.115 202.109 115.379 201.896C114.643 201.693 114.035 201.395 113.555 201L114.451 199.496C114.825 199.805 115.294 200.051 115.859 200.232C116.435 200.424 117.017 200.52 117.603 200.52C118.542 200.52 119.23 200.307 119.667 199.88C120.105 199.453 120.323 198.803 120.323 197.928V197.48C119.982 197.853 119.566 198.136 119.075 198.328C118.585 198.52 118.046 198.616 117.459 198.616C116.649 198.616 115.913 198.445 115.251 198.104C114.601 197.752 114.083 197.261 113.699 196.632C113.326 196.003 113.139 195.283 113.139 194.472C113.139 193.661 113.326 192.947 113.699 192.328C114.083 191.699 114.601 191.213 115.251 190.872C115.913 190.531 116.649 190.36 117.459 190.36C118.078 190.36 118.638 190.461 119.139 190.664C119.651 190.867 120.078 191.176 120.419 191.592V190.456H122.323ZM117.763 196.92C118.521 196.92 119.139 196.696 119.619 196.248C120.11 195.789 120.355 195.197 120.355 194.472C120.355 193.757 120.11 193.176 119.619 192.728C119.139 192.28 118.521 192.056 117.763 192.056C116.995 192.056 116.366 192.28 115.875 192.728C115.395 193.176 115.155 193.757 115.155 194.472C115.155 195.197 115.395 195.789 115.875 196.248C116.366 196.696 116.995 196.92 117.763 196.92ZM136.878 197.24V199H128.623V197.608L133.071 193.384C133.572 192.904 133.908 192.488 134.079 192.136C134.26 191.773 134.351 191.416 134.351 191.064C134.351 190.541 134.175 190.141 133.823 189.864C133.471 189.587 132.953 189.448 132.271 189.448C131.129 189.448 130.255 189.837 129.647 190.616L128.191 189.496C128.628 188.909 129.215 188.456 129.951 188.136C130.697 187.805 131.529 187.64 132.447 187.64C133.663 187.64 134.633 187.928 135.359 188.504C136.084 189.08 136.447 189.864 136.447 190.856C136.447 191.464 136.319 192.035 136.062 192.568C135.807 193.101 135.316 193.709 134.591 194.392L131.599 197.24H136.878ZM142.704 199.16C141.808 199.16 141.008 198.936 140.304 198.488C139.6 198.029 139.045 197.368 138.64 196.504C138.235 195.629 138.032 194.595 138.032 193.4C138.032 192.205 138.235 191.176 138.64 190.312C139.045 189.437 139.6 188.776 140.304 188.328C141.008 187.869 141.808 187.64 142.704 187.64C143.6 187.64 144.4 187.869 145.104 188.328C145.819 188.776 146.379 189.437 146.784 190.312C147.189 191.176 147.392 192.205 147.392 193.4C147.392 194.595 147.189 195.629 146.784 196.504C146.379 197.368 145.819 198.029 145.104 198.488C144.4 198.936 143.6 199.16 142.704 199.16ZM142.704 197.352C143.504 197.352 144.133 197.021 144.592 196.36C145.061 195.699 145.296 194.712 145.296 193.4C145.296 192.088 145.061 191.101 144.592 190.44C144.133 189.779 143.504 189.448 142.704 189.448C141.915 189.448 141.285 189.779 140.816 190.44C140.357 191.101 140.128 192.088 140.128 193.4C140.128 194.712 140.357 195.699 140.816 196.36C141.285 197.021 141.915 197.352 142.704 197.352ZM156.832 197.24V199H148.576V197.608L153.024 193.384C153.525 192.904 153.861 192.488 154.032 192.136C154.213 191.773 154.304 191.416 154.304 191.064C154.304 190.541 154.128 190.141 153.776 189.864C153.424 189.587 152.906 189.448 152.224 189.448C151.082 189.448 150.208 189.837 149.6 190.616L148.144 189.496C148.581 188.909 149.168 188.456 149.904 188.136C150.65 187.805 151.482 187.64 152.4 187.64C153.616 187.64 154.586 187.928 155.312 188.504C156.037 189.08 156.4 189.864 156.4 190.856C156.4 191.464 156.272 192.035 156.016 192.568C155.76 193.101 155.269 193.709 154.544 194.392L151.552 197.24H156.832ZM162.657 199.16C161.761 199.16 160.961 198.936 160.257 198.488C159.553 198.029 158.999 197.368 158.593 196.504C158.188 195.629 157.985 194.595 157.985 193.4C157.985 192.205 158.188 191.176 158.593 190.312C158.999 189.437 159.553 188.776 160.257 188.328C160.961 187.869 161.761 187.64 162.657 187.64C163.553 187.64 164.353 187.869 165.057 188.328C165.772 188.776 166.332 189.437 166.737 190.312C167.143 191.176 167.345 192.205 167.345 193.4C167.345 194.595 167.143 195.629 166.737 196.504C166.332 197.368 165.772 198.029 165.057 198.488C164.353 198.936 163.553 199.16 162.657 199.16ZM162.657 197.352C163.457 197.352 164.087 197.021 164.545 196.36C165.015 195.699 165.249 194.712 165.249 193.4C165.249 192.088 165.015 191.101 164.545 190.44C164.087 189.779 163.457 189.448 162.657 189.448C161.868 189.448 161.239 189.779 160.769 190.44C160.311 191.101 160.081 192.088 160.081 193.4C160.081 194.712 160.311 195.699 160.769 196.36C161.239 197.021 161.868 197.352 162.657 197.352ZM184.261 199L184.245 191.576L180.565 197.72H179.637L175.957 191.672V199H173.973V187.8H175.685L180.133 195.224L184.501 187.8H186.213L186.229 199H184.261ZM192.902 199.112C192.038 199.112 191.259 198.925 190.566 198.552C189.873 198.179 189.329 197.661 188.934 197C188.55 196.328 188.358 195.571 188.358 194.728C188.358 193.885 188.55 193.133 188.934 192.472C189.329 191.811 189.873 191.293 190.566 190.92C191.259 190.547 192.038 190.36 192.902 190.36C193.777 190.36 194.561 190.547 195.254 190.92C195.947 191.293 196.486 191.811 196.87 192.472C197.265 193.133 197.462 193.885 197.462 194.728C197.462 195.571 197.265 196.328 196.87 197C196.486 197.661 195.947 198.179 195.254 198.552C194.561 198.925 193.777 199.112 192.902 199.112ZM192.902 197.4C193.638 197.4 194.246 197.155 194.726 196.664C195.206 196.173 195.446 195.528 195.446 194.728C195.446 193.928 195.206 193.283 194.726 192.792C194.246 192.301 193.638 192.056 192.902 192.056C192.166 192.056 191.558 192.301 191.078 192.792C190.609 193.283 190.374 193.928 190.374 194.728C190.374 195.528 190.609 196.173 191.078 196.664C191.558 197.155 192.166 197.4 192.902 197.4ZM202.015 199.112C201.321 199.112 200.644 199.021 199.983 198.84C199.321 198.659 198.793 198.429 198.399 198.152L199.167 196.632C199.551 196.888 200.009 197.096 200.543 197.256C201.087 197.405 201.62 197.48 202.143 197.48C203.337 197.48 203.935 197.165 203.935 196.536C203.935 196.237 203.78 196.029 203.471 195.912C203.172 195.795 202.687 195.683 202.015 195.576C201.311 195.469 200.735 195.347 200.287 195.208C199.849 195.069 199.465 194.829 199.135 194.488C198.815 194.136 198.655 193.651 198.655 193.032C198.655 192.221 198.991 191.576 199.663 191.096C200.345 190.605 201.263 190.36 202.415 190.36C203.001 190.36 203.588 190.429 204.175 190.568C204.761 190.696 205.241 190.872 205.615 191.096L204.847 192.616C204.121 192.189 203.305 191.976 202.399 191.976C201.812 191.976 201.364 192.067 201.055 192.248C200.756 192.419 200.607 192.648 200.607 192.936C200.607 193.256 200.767 193.485 201.087 193.624C201.417 193.752 201.924 193.875 202.607 193.992C203.289 194.099 203.849 194.221 204.287 194.36C204.724 194.499 205.097 194.733 205.407 195.064C205.727 195.395 205.887 195.864 205.887 196.472C205.887 197.272 205.54 197.912 204.847 198.392C204.153 198.872 203.209 199.112 202.015 199.112ZM211.529 199.112C210.644 199.112 209.849 198.925 209.145 198.552C208.441 198.179 207.892 197.661 207.497 197C207.102 196.328 206.905 195.571 206.905 194.728C206.905 193.885 207.102 193.133 207.497 192.472C207.892 191.811 208.436 191.293 209.129 190.92C209.833 190.547 210.633 190.36 211.529 190.36C212.372 190.36 213.108 190.531 213.737 190.872C214.377 191.213 214.857 191.704 215.177 192.344L213.641 193.24C213.396 192.845 213.086 192.552 212.713 192.36C212.35 192.157 211.95 192.056 211.513 192.056C210.766 192.056 210.148 192.301 209.657 192.792C209.166 193.272 208.921 193.917 208.921 194.728C208.921 195.539 209.161 196.189 209.641 196.68C210.132 197.16 210.756 197.4 211.513 197.4C211.95 197.4 212.35 197.304 212.713 197.112C213.086 196.909 213.396 196.611 213.641 196.216L215.177 197.112C214.846 197.752 214.361 198.248 213.721 198.6C213.092 198.941 212.361 199.112 211.529 199.112ZM220.621 199.112C219.757 199.112 218.978 198.925 218.285 198.552C217.591 198.179 217.047 197.661 216.653 197C216.269 196.328 216.077 195.571 216.077 194.728C216.077 193.885 216.269 193.133 216.653 192.472C217.047 191.811 217.591 191.293 218.285 190.92C218.978 190.547 219.757 190.36 220.621 190.36C221.495 190.36 222.279 190.547 222.973 190.92C223.666 191.293 224.205 191.811 224.589 192.472C224.983 193.133 225.181 193.885 225.181 194.728C225.181 195.571 224.983 196.328 224.589 197C224.205 197.661 223.666 198.179 222.973 198.552C222.279 198.925 221.495 199.112 220.621 199.112ZM220.621 197.4C221.357 197.4 221.965 197.155 222.445 196.664C222.925 196.173 223.165 195.528 223.165 194.728C223.165 193.928 222.925 193.283 222.445 192.792C221.965 192.301 221.357 192.056 220.621 192.056C219.885 192.056 219.277 192.301 218.797 192.792C218.327 193.283 218.093 193.928 218.093 194.728C218.093 195.528 218.327 196.173 218.797 196.664C219.277 197.155 219.885 197.4 220.621 197.4ZM240.187 190.456L237.035 199H235.115L232.907 193.112L230.667 199H228.747L225.611 190.456H227.499L229.755 196.76L232.107 190.456H233.787L236.091 196.792L238.411 190.456H240.187Z" fill="black"/>
<path d="M39.1 222.072C38.268 222.072 37.512 221.888 36.832 221.52C36.16 221.144 35.632 220.632 35.248 219.984C34.872 219.336 34.684 218.608 34.684 217.8C34.684 216.992 34.872 216.264 35.248 215.616C35.632 214.968 36.16 214.46 36.832 214.092C37.512 213.716 38.268 213.528 39.1 213.528C39.932 213.528 40.68 213.712 41.344 214.08C42.016 214.448 42.544 214.96 42.928 215.616C43.312 216.264 43.504 216.992 43.504 217.8C43.504 218.608 43.312 219.34 42.928 219.996C42.544 220.644 42.016 221.152 41.344 221.52C40.68 221.888 39.932 222.072 39.1 222.072ZM39.1 221.28C39.764 221.28 40.364 221.132 40.9 220.836C41.436 220.532 41.856 220.116 42.16 219.588C42.464 219.052 42.616 218.456 42.616 217.8C42.616 217.144 42.464 216.552 42.16 216.024C41.856 215.488 41.436 215.072 40.9 214.776C40.364 214.472 39.764 214.32 39.1 214.32C38.436 214.32 37.832 214.472 37.288 214.776C36.752 215.072 36.328 215.488 36.016 216.024C35.712 216.552 35.56 217.144 35.56 217.8C35.56 218.456 35.712 219.052 36.016 219.588C36.328 220.116 36.752 220.532 37.288 220.836C37.832 221.132 38.436 221.28 39.1 221.28ZM45.419 215.688H46.271V218.484H50.243V215.688H51.095V222H50.243V219.216H46.271V222H45.419V215.688ZM58.6767 215.688V222H57.8247V216.444H54.8007L54.7167 218.004C54.6527 219.316 54.5007 220.324 54.2607 221.028C54.0207 221.732 53.5927 222.084 52.9767 222.084C52.8087 222.084 52.6047 222.052 52.3647 221.988L52.4247 221.256C52.5687 221.288 52.6687 221.304 52.7247 221.304C53.0527 221.304 53.3007 221.152 53.4687 220.848C53.6367 220.544 53.7487 220.168 53.8047 219.72C53.8607 219.272 53.9087 218.68 53.9487 217.944L54.0567 215.688H58.6767ZM63.2707 215.64C64.0947 215.64 64.7267 215.848 65.1667 216.264C65.6067 216.672 65.8267 217.28 65.8267 218.088V222H65.0107V221.016C64.8187 221.344 64.5347 221.6 64.1587 221.784C63.7907 221.968 63.3507 222.06 62.8387 222.06C62.1347 222.06 61.5747 221.892 61.1587 221.556C60.7427 221.22 60.5347 220.776 60.5347 220.224C60.5347 219.688 60.7267 219.256 61.1107 218.928C61.5027 218.6 62.1227 218.436 62.9707 218.436H64.9747V218.052C64.9747 217.508 64.8227 217.096 64.5187 216.816C64.2147 216.528 63.7707 216.384 63.1867 216.384C62.7867 216.384 62.4027 216.452 62.0347 216.588C61.6667 216.716 61.3507 216.896 61.0867 217.128L60.7027 216.492C61.0227 216.22 61.4067 216.012 61.8547 215.868C62.3027 215.716 62.7747 215.64 63.2707 215.64ZM62.9707 221.388C63.4507 221.388 63.8627 221.28 64.2067 221.064C64.5507 220.84 64.8067 220.52 64.9747 220.104V219.072H62.9947C61.9147 219.072 61.3747 219.448 61.3747 220.2C61.3747 220.568 61.5147 220.86 61.7947 221.076C62.0747 221.284 62.4667 221.388 62.9707 221.388ZM68.0948 215.688H68.9468V220.704L73.1588 215.688H73.9148V222H73.0628V216.984L68.8628 222H68.0948V215.688ZM70.9628 214.776C70.4188 214.776 69.9868 214.64 69.6668 214.368C69.3468 214.096 69.1828 213.712 69.1748 213.216H69.7868C69.7948 213.528 69.9068 213.78 70.1228 213.972C70.3388 214.156 70.6188 214.248 70.9628 214.248C71.3068 214.248 71.5868 214.156 71.8028 213.972C72.0268 213.78 72.1428 213.528 72.1508 213.216H72.7628C72.7548 213.712 72.5868 214.096 72.2588 214.368C71.9388 214.64 71.5068 214.776 70.9628 214.776ZM76.3565 215.688H77.2085V218.484H81.1805V215.688H82.0325V222H81.1805V219.216H77.2085V222H76.3565V215.688ZM83.9622 218.376H87.1062V219.12H83.9622V218.376ZM91.3282 219.192H89.8882V222H89.0362V215.688H89.8882V218.46H91.3402L93.5602 215.688H94.4842L92.0002 218.748L94.6642 222H93.6562L91.3282 219.192ZM98.3902 222.06C97.7822 222.06 97.2342 221.924 96.7462 221.652C96.2582 221.372 95.8742 220.988 95.5942 220.5C95.3142 220.012 95.1742 219.46 95.1742 218.844C95.1742 218.228 95.3142 217.676 95.5942 217.188C95.8742 216.7 96.2582 216.32 96.7462 216.048C97.2342 215.776 97.7822 215.64 98.3902 215.64C98.9982 215.64 99.5462 215.776 100.034 216.048C100.522 216.32 100.902 216.7 101.174 217.188C101.454 217.676 101.594 218.228 101.594 218.844C101.594 219.46 101.454 220.012 101.174 220.5C100.902 220.988 100.522 221.372 100.034 221.652C99.5462 221.924 98.9982 222.06 98.3902 222.06ZM98.3902 221.304C98.8382 221.304 99.2382 221.204 99.5902 221.004C99.9502 220.796 100.23 220.504 100.43 220.128C100.63 219.752 100.73 219.324 100.73 218.844C100.73 218.364 100.63 217.936 100.43 217.56C100.23 217.184 99.9502 216.896 99.5902 216.696C99.2382 216.488 98.8382 216.384 98.3902 216.384C97.9422 216.384 97.5382 216.488 97.1782 216.696C96.8262 216.896 96.5462 217.184 96.3382 217.56C96.1382 217.936 96.0382 218.364 96.0382 218.844C96.0382 219.324 96.1382 219.752 96.3382 220.128C96.5462 220.504 96.8262 220.796 97.1782 221.004C97.5382 221.204 97.9422 221.304 98.3902 221.304ZM103.415 215.688H104.267V218.484H108.239V215.688H109.091V222H108.239V219.216H104.267V222H103.415V215.688ZM119.133 218.832C119.133 219.816 118.809 220.588 118.161 221.148C117.513 221.708 116.597 222.012 115.413 222.06V224.328H114.585V222.072C113.409 222.024 112.497 221.72 111.849 221.16C111.209 220.592 110.889 219.816 110.889 218.832C110.889 217.856 111.209 217.092 111.849 216.54C112.497 215.988 113.409 215.688 114.585 215.64V213.096H115.413V215.64C116.597 215.696 117.513 216 118.161 216.552C118.809 217.104 119.133 217.864 119.133 218.832ZM111.729 218.832C111.729 219.584 111.969 220.172 112.449 220.596C112.937 221.02 113.649 221.26 114.585 221.316V216.396C113.657 216.444 112.949 216.68 112.461 217.104C111.973 217.52 111.729 218.096 111.729 218.832ZM115.413 221.316C116.349 221.268 117.061 221.032 117.549 220.608C118.045 220.184 118.293 219.592 118.293 218.832C118.293 218.088 118.045 217.508 117.549 217.092C117.061 216.676 116.349 216.444 115.413 216.396V221.316ZM126.455 219.108H121.175C121.223 219.764 121.475 220.296 121.931 220.704C122.387 221.104 122.963 221.304 123.659 221.304C124.051 221.304 124.411 221.236 124.739 221.1C125.067 220.956 125.351 220.748 125.591 220.476L126.071 221.028C125.791 221.364 125.439 221.62 125.015 221.796C124.599 221.972 124.139 222.06 123.635 222.06C122.987 222.06 122.411 221.924 121.907 221.652C121.411 221.372 121.023 220.988 120.743 220.5C120.463 220.012 120.323 219.46 120.323 218.844C120.323 218.228 120.455 217.676 120.719 217.188C120.991 216.7 121.359 216.32 121.823 216.048C122.295 215.776 122.823 215.64 123.407 215.64C123.991 215.64 124.515 215.776 124.979 216.048C125.443 216.32 125.807 216.7 126.071 217.188C126.335 217.668 126.467 218.22 126.467 218.844L126.455 219.108ZM123.407 216.372C122.799 216.372 122.287 216.568 121.871 216.96C121.463 217.344 121.231 217.848 121.175 218.472H125.651C125.595 217.848 125.359 217.344 124.943 216.96C124.535 216.568 124.023 216.372 123.407 216.372ZM131.605 215.64C132.197 215.64 132.733 215.776 133.213 216.048C133.693 216.312 134.069 216.688 134.341 217.176C134.613 217.664 134.749 218.22 134.749 218.844C134.749 219.476 134.613 220.036 134.341 220.524C134.069 221.012 133.693 221.392 133.213 221.664C132.741 221.928 132.205 222.06 131.605 222.06C131.093 222.06 130.629 221.956 130.213 221.748C129.805 221.532 129.469 221.22 129.205 220.812V224.328H128.353V215.688H129.169V216.936C129.425 216.52 129.761 216.2 130.177 215.976C130.601 215.752 131.077 215.64 131.605 215.64ZM131.545 221.304C131.985 221.304 132.385 221.204 132.745 221.004C133.105 220.796 133.385 220.504 133.585 220.128C133.793 219.752 133.897 219.324 133.897 218.844C133.897 218.364 133.793 217.94 133.585 217.572C133.385 217.196 133.105 216.904 132.745 216.696C132.385 216.488 131.985 216.384 131.545 216.384C131.097 216.384 130.693 216.488 130.333 216.696C129.981 216.904 129.701 217.196 129.493 217.572C129.293 217.94 129.193 218.364 129.193 218.844C129.193 219.324 129.293 219.752 129.493 220.128C129.701 220.504 129.981 220.796 130.333 221.004C130.693 221.204 131.097 221.304 131.545 221.304ZM142.099 219.108H136.819C136.867 219.764 137.119 220.296 137.575 220.704C138.031 221.104 138.607 221.304 139.303 221.304C139.695 221.304 140.055 221.236 140.383 221.1C140.711 220.956 140.995 220.748 141.235 220.476L141.715 221.028C141.435 221.364 141.083 221.62 140.659 221.796C140.243 221.972 139.783 222.06 139.279 222.06C138.631 222.06 138.055 221.924 137.551 221.652C137.055 221.372 136.667 220.988 136.387 220.5C136.107 220.012 135.967 219.46 135.967 218.844C135.967 218.228 136.099 217.676 136.363 217.188C136.635 216.7 137.003 216.32 137.467 216.048C137.939 215.776 138.467 215.64 139.051 215.64C139.635 215.64 140.159 215.776 140.623 216.048C141.087 216.32 141.451 216.7 141.715 217.188C141.979 217.668 142.111 218.22 142.111 218.844L142.099 219.108ZM139.051 216.372C138.443 216.372 137.931 216.568 137.515 216.96C137.107 217.344 136.875 217.848 136.819 218.472H141.295C141.239 217.848 141.003 217.344 140.587 216.96C140.179 216.568 139.667 216.372 139.051 216.372ZM143.997 215.688H144.849V218.484H148.821V215.688H149.673V222H148.821V219.216H144.849V222H143.997V215.688ZM158.671 221.256V223.584H157.867V222H152.095V215.688H152.947V221.256H156.799V215.688H157.651V221.256H158.671ZM160.298 215.688H161.15V220.704L165.362 215.688H166.118V222H165.266V216.984L161.066 222H160.298V215.688ZM173.408 215.688V222H172.628V219.912H170.648H170.408L168.944 222H168.02L169.592 219.792C169.104 219.656 168.728 219.424 168.464 219.096C168.2 218.768 168.068 218.352 168.068 217.848C168.068 217.144 168.308 216.608 168.788 216.24C169.268 215.872 169.924 215.688 170.756 215.688H173.408ZM168.932 217.872C168.932 218.808 169.528 219.276 170.72 219.276H172.628V216.444H170.78C169.548 216.444 168.932 216.92 168.932 217.872ZM184.642 215.688V222H183.79V216.444H179.83V222H178.978V215.688H184.642ZM189.668 222.06C189.06 222.06 188.512 221.924 188.024 221.652C187.536 221.372 187.152 220.988 186.872 220.5C186.592 220.012 186.452 219.46 186.452 218.844C186.452 218.228 186.592 217.676 186.872 217.188C187.152 216.7 187.536 216.32 188.024 216.048C188.512 215.776 189.06 215.64 189.668 215.64C190.276 215.64 190.824 215.776 191.312 216.048C191.8 216.32 192.18 216.7 192.452 217.188C192.732 217.676 192.872 218.228 192.872 218.844C192.872 219.46 192.732 220.012 192.452 220.5C192.18 220.988 191.8 221.372 191.312 221.652C190.824 221.924 190.276 222.06 189.668 222.06ZM189.668 221.304C190.116 221.304 190.516 221.204 190.868 221.004C191.228 220.796 191.508 220.504 191.708 220.128C191.908 219.752 192.008 219.324 192.008 218.844C192.008 218.364 191.908 217.936 191.708 217.56C191.508 217.184 191.228 216.896 190.868 216.696C190.516 216.488 190.116 216.384 189.668 216.384C189.22 216.384 188.816 216.488 188.456 216.696C188.104 216.896 187.824 217.184 187.616 217.56C187.416 217.936 187.316 218.364 187.316 218.844C187.316 219.324 187.416 219.752 187.616 220.128C187.824 220.504 188.104 220.796 188.456 221.004C188.816 221.204 189.22 221.304 189.668 221.304ZM35.272 240.06C35.096 240.06 34.944 239.996 34.816 239.868C34.696 239.74 34.636 239.584 34.636 239.4C34.636 239.216 34.696 239.064 34.816 238.944C34.944 238.816 35.096 238.752 35.272 238.752C35.448 238.752 35.6 238.816 35.728 238.944C35.856 239.064 35.92 239.216 35.92 239.4C35.92 239.584 35.856 239.74 35.728 239.868C35.6 239.996 35.448 240.06 35.272 240.06ZM44.931 231.6V240H44.199L38.799 233.184V240H37.911V231.6H38.643L44.055 238.416V231.6H44.931ZM53.6127 239.232V240H47.6727V231.6H53.4327V232.368H48.5607V235.356H52.9047V236.112H48.5607V239.232H53.6127ZM57.332 232.368H54.38V231.6H61.172V232.368H58.22V240H57.332V232.368ZM61.5559 236.376H64.6999V237.12H61.5559V236.376ZM69.882 233.64C70.474 233.64 71.01 233.776 71.49 234.048C71.97 234.312 72.346 234.688 72.618 235.176C72.89 235.664 73.026 236.22 73.026 236.844C73.026 237.476 72.89 238.036 72.618 238.524C72.346 239.012 71.97 239.392 71.49 239.664C71.018 239.928 70.482 240.06 69.882 240.06C69.37 240.06 68.906 239.956 68.49 239.748C68.082 239.532 67.746 239.22 67.482 238.812V242.328H66.63V233.688H67.446V234.936C67.702 234.52 68.038 234.2 68.454 233.976C68.878 233.752 69.354 233.64 69.882 233.64ZM69.822 239.304C70.262 239.304 70.662 239.204 71.022 239.004C71.382 238.796 71.662 238.504 71.862 238.128C72.07 237.752 72.174 237.324 72.174 236.844C72.174 236.364 72.07 235.94 71.862 235.572C71.662 235.196 71.382 234.904 71.022 234.696C70.662 234.488 70.262 234.384 69.822 234.384C69.374 234.384 68.97 234.488 68.61 234.696C68.258 234.904 67.978 235.196 67.77 235.572C67.57 235.94 67.47 236.364 67.47 236.844C67.47 237.324 67.57 237.752 67.77 238.128C67.978 238.504 68.258 238.796 68.61 239.004C68.97 239.204 69.374 239.304 69.822 239.304ZM76.9934 233.64C77.8174 233.64 78.4494 233.848 78.8894 234.264C79.3294 234.672 79.5494 235.28 79.5494 236.088V240H78.7334V239.016C78.5414 239.344 78.2574 239.6 77.8814 239.784C77.5134 239.968 77.0734 240.06 76.5614 240.06C75.8574 240.06 75.2974 239.892 74.8814 239.556C74.4654 239.22 74.2574 238.776 74.2574 238.224C74.2574 237.688 74.4494 237.256 74.8334 236.928C75.2254 236.6 75.8454 236.436 76.6934 236.436H78.6974V236.052C78.6974 235.508 78.5454 235.096 78.2414 234.816C77.9374 234.528 77.4934 234.384 76.9094 234.384C76.5094 234.384 76.1254 234.452 75.7574 234.588C75.3894 234.716 75.0734 234.896 74.8094 235.128L74.4254 234.492C74.7454 234.22 75.1294 234.012 75.5774 233.868C76.0254 233.716 76.4974 233.64 76.9934 233.64ZM76.6934 239.388C77.1734 239.388 77.5854 239.28 77.9294 239.064C78.2734 238.84 78.5294 238.52 78.6974 238.104V237.072H76.7174C75.6374 237.072 75.0974 237.448 75.0974 238.2C75.0974 238.568 75.2374 238.86 75.5174 239.076C75.7974 239.284 76.1894 239.388 76.6934 239.388ZM84.7606 236.712C85.2086 236.816 85.5526 236.996 85.7926 237.252C86.0406 237.508 86.1646 237.82 86.1646 238.188C86.1646 238.556 86.0366 238.884 85.7806 239.172C85.5326 239.46 85.1926 239.684 84.7606 239.844C84.3286 239.996 83.8526 240.072 83.3326 240.072C82.8766 240.072 82.4286 240.008 81.9886 239.88C81.5486 239.744 81.1646 239.548 80.8366 239.292L81.1246 238.656C81.4126 238.872 81.7486 239.04 82.1326 239.16C82.5166 239.28 82.9046 239.34 83.2966 239.34C83.8806 239.34 84.3566 239.232 84.7246 239.016C85.1006 238.792 85.2886 238.492 85.2886 238.116C85.2886 237.78 85.1366 237.52 84.8326 237.336C84.5286 237.144 84.1126 237.048 83.5846 237.048H82.5046V236.424H83.5366C84.0086 236.424 84.3886 236.336 84.6766 236.16C84.9646 235.976 85.1086 235.732 85.1086 235.428C85.1086 235.092 84.9446 234.828 84.6166 234.636C84.2966 234.444 83.8766 234.348 83.3566 234.348C82.6766 234.348 82.0046 234.52 81.3406 234.864L81.1006 234.204C81.8526 233.812 82.6326 233.616 83.4406 233.616C83.9206 233.616 84.3526 233.688 84.7366 233.832C85.1286 233.968 85.4326 234.164 85.6486 234.42C85.8726 234.676 85.9846 234.972 85.9846 235.308C85.9846 235.628 85.8726 235.912 85.6486 236.16C85.4326 236.408 85.1366 236.592 84.7606 236.712ZM91.3507 233.64C91.9427 233.64 92.4787 233.776 92.9587 234.048C93.4387 234.312 93.8147 234.688 94.0867 235.176C94.3587 235.664 94.4947 236.22 94.4947 236.844C94.4947 237.476 94.3587 238.036 94.0867 238.524C93.8147 239.012 93.4387 239.392 92.9587 239.664C92.4867 239.928 91.9507 240.06 91.3507 240.06C90.8387 240.06 90.3747 239.956 89.9587 239.748C89.5507 239.532 89.2147 239.22 88.9507 238.812V242.328H88.0987V233.688H88.9147V234.936C89.1707 234.52 89.5067 234.2 89.9227 233.976C90.3467 233.752 90.8227 233.64 91.3507 233.64ZM91.2907 239.304C91.7307 239.304 92.1307 239.204 92.4907 239.004C92.8507 238.796 93.1307 238.504 93.3307 238.128C93.5387 237.752 93.6427 237.324 93.6427 236.844C93.6427 236.364 93.5387 235.94 93.3307 235.572C93.1307 235.196 92.8507 234.904 92.4907 234.696C92.1307 234.488 91.7307 234.384 91.2907 234.384C90.8427 234.384 90.4387 234.488 90.0787 234.696C89.7267 234.904 89.4467 235.196 89.2387 235.572C89.0387 235.94 88.9387 236.364 88.9387 236.844C88.9387 237.324 89.0387 237.752 89.2387 238.128C89.4467 238.504 89.7267 238.796 90.0787 239.004C90.4387 239.204 90.8427 239.304 91.2907 239.304ZM98.4621 233.64C99.2861 233.64 99.9181 233.848 100.358 234.264C100.798 234.672 101.018 235.28 101.018 236.088V240H100.202V239.016C100.01 239.344 99.7261 239.6 99.3501 239.784C98.9821 239.968 98.5421 240.06 98.0301 240.06C97.3261 240.06 96.7661 239.892 96.3501 239.556C95.9341 239.22 95.7261 238.776 95.7261 238.224C95.7261 237.688 95.9181 237.256 96.3021 236.928C96.6941 236.6 97.3141 236.436 98.1621 236.436H100.166V236.052C100.166 235.508 100.014 235.096 99.7101 234.816C99.4061 234.528 98.9621 234.384 98.3781 234.384C97.9781 234.384 97.5941 234.452 97.2261 234.588C96.8581 234.716 96.5421 234.896 96.2781 235.128L95.8941 234.492C96.2141 234.22 96.5981 234.012 97.0461 233.868C97.4941 233.716 97.9661 233.64 98.4621 233.64ZM98.1621 239.388C98.6421 239.388 99.0541 239.28 99.3981 239.064C99.7421 238.84 99.9981 238.52 100.166 238.104V237.072H98.1861C97.1061 237.072 96.5661 237.448 96.5661 238.2C96.5661 238.568 96.7061 238.86 96.9861 239.076C97.2661 239.284 97.6581 239.388 98.1621 239.388ZM106.346 233.844C106.93 233.844 107.45 233.976 107.906 234.24C108.37 234.496 108.73 234.86 108.986 235.332C109.242 235.796 109.37 236.328 109.37 236.928C109.37 237.544 109.234 238.092 108.962 238.572C108.698 239.044 108.326 239.412 107.846 239.676C107.366 239.94 106.814 240.072 106.19 240.072C105.142 240.072 104.33 239.704 103.754 238.968C103.178 238.232 102.89 237.216 102.89 235.92C102.89 234.568 103.146 233.532 103.658 232.812C104.178 232.092 104.986 231.604 106.082 231.348L108.914 230.7L109.058 231.48L106.394 232.092C105.49 232.292 104.826 232.648 104.402 233.16C103.978 233.664 103.746 234.412 103.706 235.404C103.962 234.916 104.318 234.536 104.774 234.264C105.23 233.984 105.754 233.844 106.346 233.844ZM106.214 239.364C106.654 239.364 107.046 239.264 107.39 239.064C107.742 238.856 108.014 238.568 108.206 238.2C108.406 237.832 108.506 237.416 108.506 236.952C108.506 236.488 108.41 236.08 108.218 235.728C108.026 235.376 107.754 235.104 107.402 234.912C107.058 234.712 106.662 234.612 106.214 234.612C105.766 234.612 105.366 234.712 105.014 234.912C104.67 235.104 104.398 235.376 104.198 235.728C104.006 236.08 103.91 236.488 103.91 236.952C103.91 237.416 104.006 237.832 104.198 238.2C104.398 238.568 104.674 238.856 105.026 239.064C105.378 239.264 105.774 239.364 106.214 239.364ZM113.8 240.06C113.192 240.06 112.644 239.924 112.156 239.652C111.668 239.372 111.284 238.988 111.004 238.5C110.724 238.012 110.584 237.46 110.584 236.844C110.584 236.228 110.724 235.676 111.004 235.188C111.284 234.7 111.668 234.32 112.156 234.048C112.644 233.776 113.192 233.64 113.8 233.64C114.408 233.64 114.956 233.776 115.444 234.048C115.932 234.32 116.312 234.7 116.584 235.188C116.864 235.676 117.004 236.228 117.004 236.844C117.004 237.46 116.864 238.012 116.584 238.5C116.312 238.988 115.932 239.372 115.444 239.652C114.956 239.924 114.408 240.06 113.8 240.06ZM113.8 239.304C114.248 239.304 114.648 239.204 115 239.004C115.36 238.796 115.64 238.504 115.84 238.128C116.04 237.752 116.14 237.324 116.14 236.844C116.14 236.364 116.04 235.936 115.84 235.56C115.64 235.184 115.36 234.896 115 234.696C114.648 234.488 114.248 234.384 113.8 234.384C113.352 234.384 112.948 234.488 112.588 234.696C112.236 234.896 111.956 235.184 111.748 235.56C111.548 235.936 111.448 236.364 111.448 236.844C111.448 237.324 111.548 237.752 111.748 238.128C111.956 238.504 112.236 238.796 112.588 239.004C112.948 239.204 113.352 239.304 113.8 239.304ZM123.031 234.444H120.643V240H119.791V234.444H117.403V233.688H123.031V234.444ZM126.555 237.192H125.115V240H124.263V233.688H125.115V236.46H126.567L128.787 233.688H129.711L127.227 236.748L129.891 240H128.883L126.555 237.192ZM136.533 237.108H131.253C131.301 237.764 131.553 238.296 132.009 238.704C132.465 239.104 133.041 239.304 133.737 239.304C134.129 239.304 134.489 239.236 134.817 239.1C135.145 238.956 135.429 238.748 135.669 238.476L136.149 239.028C135.869 239.364 135.517 239.62 135.093 239.796C134.677 239.972 134.217 240.06 133.713 240.06C133.065 240.06 132.489 239.924 131.985 239.652C131.489 239.372 131.101 238.988 130.821 238.5C130.541 238.012 130.401 237.46 130.401 236.844C130.401 236.228 130.533 235.676 130.797 235.188C131.069 234.7 131.437 234.32 131.901 234.048C132.373 233.776 132.901 233.64 133.485 233.64C134.069 233.64 134.593 233.776 135.057 234.048C135.521 234.32 135.885 234.7 136.149 235.188C136.413 235.668 136.545 236.22 136.545 236.844L136.533 237.108ZM133.485 234.372C132.877 234.372 132.365 234.568 131.949 234.96C131.541 235.344 131.309 235.848 131.253 236.472H135.729C135.673 235.848 135.437 235.344 135.021 234.96C134.613 234.568 134.101 234.372 133.485 234.372Z" fill="black" fill-opacity="0.7"/>
<rect x="103" y="297" width="106" height="35" rx="17.5" fill="white"/>
<rect x="103.5" y="297.5" width="105" height="34" rx="17" stroke="black" stroke-opacity="0.5"/>
<path d="M135.507 310.3H141.139V310.993H136.31V313.512H138.829C139.738 313.512 140.427 313.699 140.897 314.073C141.373 314.447 141.612 314.99 141.612 315.701C141.612 316.442 141.355 317.01 140.842 317.406C140.336 317.802 139.606 318 138.653 318H135.507V310.3ZM138.642 317.351C139.353 317.351 139.888 317.215 140.248 316.944C140.614 316.673 140.798 316.269 140.798 315.734C140.798 315.206 140.618 314.814 140.259 314.557C139.907 314.293 139.368 314.161 138.642 314.161H136.31V317.351H138.642ZM143.312 312.214H144.093V316.812L147.954 312.214H148.647V318H147.866V313.402L144.016 318H143.312V312.214ZM155.615 312.214V318H154.834V312.907H152.062L151.985 314.337C151.927 315.54 151.787 316.464 151.567 317.109C151.347 317.754 150.955 318.077 150.39 318.077C150.236 318.077 150.049 318.048 149.829 317.989L149.884 317.318C150.016 317.347 150.108 317.362 150.159 317.362C150.46 317.362 150.687 317.223 150.841 316.944C150.995 316.665 151.098 316.321 151.149 315.91C151.201 315.499 151.245 314.957 151.281 314.282L151.38 312.214H155.615ZM162.895 315.349H158.055C158.099 315.95 158.33 316.438 158.748 316.812C159.166 317.179 159.694 317.362 160.332 317.362C160.692 317.362 161.022 317.3 161.322 317.175C161.623 317.043 161.883 316.852 162.103 316.603L162.543 317.109C162.287 317.417 161.964 317.652 161.575 317.813C161.194 317.974 160.772 318.055 160.31 318.055C159.716 318.055 159.188 317.93 158.726 317.681C158.272 317.424 157.916 317.072 157.659 316.625C157.403 316.178 157.274 315.672 157.274 315.107C157.274 314.542 157.395 314.036 157.637 313.589C157.887 313.142 158.224 312.793 158.649 312.544C159.082 312.295 159.566 312.17 160.101 312.17C160.637 312.17 161.117 312.295 161.542 312.544C161.968 312.793 162.301 313.142 162.543 313.589C162.785 314.029 162.906 314.535 162.906 315.107L162.895 315.349ZM160.101 312.841C159.544 312.841 159.075 313.021 158.693 313.38C158.319 313.732 158.107 314.194 158.055 314.766H162.158C162.107 314.194 161.891 313.732 161.509 313.38C161.135 313.021 160.666 312.841 160.101 312.841ZM168.447 312.907H166.258V318H165.477V312.907H163.288V312.214H168.447V312.907ZM172.008 314.26C172.734 314.267 173.287 314.429 173.669 314.744C174.05 315.059 174.241 315.514 174.241 316.108C174.241 316.724 174.035 317.197 173.625 317.527C173.214 317.857 172.627 318.018 171.865 318.011L169.577 318V312.214H170.358V314.238L172.008 314.26ZM175.209 312.214H175.99V318H175.209V312.214ZM171.821 317.417C172.356 317.424 172.759 317.318 173.031 317.098C173.309 316.871 173.449 316.541 173.449 316.108C173.449 315.683 173.313 315.367 173.042 315.162C172.77 314.957 172.363 314.85 171.821 314.843L170.358 314.821V317.395L171.821 317.417Z" fill="black" fill-opacity="0.7"/>
<path d="M130.272 347.3V355H129.469V348.004H124.596V355H123.793V347.3H130.272ZM135.07 355.055C134.512 355.055 134.01 354.93 133.563 354.681C133.115 354.424 132.763 354.072 132.507 353.625C132.25 353.178 132.122 352.672 132.122 352.107C132.122 351.542 132.25 351.036 132.507 350.589C132.763 350.142 133.115 349.793 133.563 349.544C134.01 349.295 134.512 349.17 135.07 349.17C135.627 349.17 136.129 349.295 136.577 349.544C137.024 349.793 137.372 350.142 137.622 350.589C137.878 351.036 138.007 351.542 138.007 352.107C138.007 352.672 137.878 353.178 137.622 353.625C137.372 354.072 137.024 354.424 136.577 354.681C136.129 354.93 135.627 355.055 135.07 355.055ZM135.07 354.362C135.48 354.362 135.847 354.27 136.17 354.087C136.5 353.896 136.756 353.629 136.94 353.284C137.123 352.939 137.215 352.547 137.215 352.107C137.215 351.667 137.123 351.275 136.94 350.93C136.756 350.585 136.5 350.321 136.17 350.138C135.847 349.947 135.48 349.852 135.07 349.852C134.659 349.852 134.289 349.947 133.959 350.138C133.636 350.321 133.379 350.585 133.189 350.93C133.005 351.275 132.914 351.667 132.914 352.107C132.914 352.547 133.005 352.939 133.189 353.284C133.379 353.629 133.636 353.896 133.959 354.087C134.289 354.27 134.659 354.362 135.07 354.362ZM145.287 354.318V356.397H144.55V355H139.369V356.397H138.632V354.318H138.962C139.35 354.296 139.614 354.01 139.754 353.46C139.893 352.91 139.988 352.14 140.04 351.15L140.117 349.214H144.385V354.318H145.287ZM140.755 351.194C140.718 352.015 140.648 352.694 140.546 353.229C140.443 353.757 140.26 354.12 139.996 354.318H143.604V349.907H140.821L140.755 351.194ZM149.79 349.17C150.332 349.17 150.824 349.295 151.264 349.544C151.704 349.786 152.048 350.131 152.298 350.578C152.547 351.025 152.672 351.535 152.672 352.107C152.672 352.686 152.547 353.2 152.298 353.647C152.048 354.094 151.704 354.443 151.264 354.692C150.831 354.934 150.34 355.055 149.79 355.055C149.32 355.055 148.895 354.96 148.514 354.769C148.14 354.571 147.832 354.285 147.59 353.911V357.134H146.809V349.214H147.557V350.358C147.791 349.977 148.099 349.683 148.481 349.478C148.869 349.273 149.306 349.17 149.79 349.17ZM149.735 354.362C150.138 354.362 150.505 354.27 150.835 354.087C151.165 353.896 151.421 353.629 151.605 353.284C151.795 352.939 151.891 352.547 151.891 352.107C151.891 351.667 151.795 351.278 151.605 350.941C151.421 350.596 151.165 350.329 150.835 350.138C150.505 349.947 150.138 349.852 149.735 349.852C149.324 349.852 148.954 349.947 148.624 350.138C148.301 350.329 148.044 350.596 147.854 350.941C147.67 351.278 147.579 351.667 147.579 352.107C147.579 352.547 147.67 352.939 147.854 353.284C148.044 353.629 148.301 353.896 148.624 354.087C148.954 354.27 149.324 354.362 149.735 354.362ZM156.737 355.055C156.179 355.055 155.677 354.93 155.23 354.681C154.782 354.424 154.43 354.072 154.174 353.625C153.917 353.178 153.789 352.672 153.789 352.107C153.789 351.542 153.917 351.036 154.174 350.589C154.43 350.142 154.782 349.793 155.23 349.544C155.677 349.295 156.179 349.17 156.737 349.17C157.294 349.17 157.796 349.295 158.244 349.544C158.691 349.793 159.039 350.142 159.289 350.589C159.545 351.036 159.674 351.542 159.674 352.107C159.674 352.672 159.545 353.178 159.289 353.625C159.039 354.072 158.691 354.424 158.244 354.681C157.796 354.93 157.294 355.055 156.737 355.055ZM156.737 354.362C157.147 354.362 157.514 354.27 157.837 354.087C158.167 353.896 158.423 353.629 158.607 353.284C158.79 352.939 158.882 352.547 158.882 352.107C158.882 351.667 158.79 351.275 158.607 350.93C158.423 350.585 158.167 350.321 157.837 350.138C157.514 349.947 157.147 349.852 156.737 349.852C156.326 349.852 155.956 349.947 155.626 350.138C155.303 350.321 155.046 350.585 154.856 350.93C154.672 351.275 154.581 351.667 154.581 352.107C154.581 352.547 154.672 352.939 154.856 353.284C155.046 353.629 155.303 353.896 155.626 354.087C155.956 354.27 156.326 354.362 156.737 354.362ZM164.148 349.357C164.683 349.357 165.16 349.478 165.578 349.72C166.003 349.955 166.333 350.288 166.568 350.721C166.803 351.146 166.92 351.634 166.92 352.184C166.92 352.749 166.795 353.251 166.546 353.691C166.304 354.124 165.963 354.461 165.523 354.703C165.083 354.945 164.577 355.066 164.005 355.066C163.044 355.066 162.3 354.729 161.772 354.054C161.244 353.379 160.98 352.448 160.98 351.26C160.98 350.021 161.215 349.071 161.684 348.411C162.161 347.751 162.901 347.304 163.906 347.069L166.502 346.475L166.634 347.19L164.192 347.751C163.363 347.934 162.755 348.261 162.366 348.73C161.977 349.192 161.765 349.878 161.728 350.787C161.963 350.34 162.289 349.991 162.707 349.742C163.125 349.485 163.605 349.357 164.148 349.357ZM164.027 354.417C164.43 354.417 164.79 354.325 165.105 354.142C165.428 353.951 165.677 353.687 165.853 353.35C166.036 353.013 166.128 352.631 166.128 352.206C166.128 351.781 166.04 351.407 165.864 351.084C165.688 350.761 165.439 350.512 165.116 350.336C164.801 350.153 164.438 350.061 164.027 350.061C163.616 350.061 163.25 350.153 162.927 350.336C162.612 350.512 162.362 350.761 162.179 351.084C162.003 351.407 161.915 351.781 161.915 352.206C161.915 352.631 162.003 353.013 162.179 353.35C162.362 353.687 162.615 353.951 162.938 354.142C163.261 354.325 163.624 354.417 164.027 354.417ZM168.594 349.214H169.375V351.777H173.016V349.214H173.797V355H173.016V352.448H169.375V355H168.594V349.214ZM181.077 352.349H176.237C176.281 352.95 176.512 353.438 176.93 353.812C177.348 354.179 177.876 354.362 178.514 354.362C178.873 354.362 179.203 354.3 179.504 354.175C179.804 354.043 180.065 353.852 180.285 353.603L180.725 354.109C180.468 354.417 180.145 354.652 179.757 354.813C179.375 354.974 178.954 355.055 178.492 355.055C177.898 355.055 177.37 354.93 176.908 354.681C176.453 354.424 176.097 354.072 175.841 353.625C175.584 353.178 175.456 352.672 175.456 352.107C175.456 351.542 175.577 351.036 175.819 350.589C176.068 350.142 176.405 349.793 176.831 349.544C177.263 349.295 177.747 349.17 178.283 349.17C178.818 349.17 179.298 349.295 179.724 349.544C180.149 349.793 180.483 350.142 180.725 350.589C180.967 351.029 181.088 351.535 181.088 352.107L181.077 352.349ZM178.283 349.841C177.725 349.841 177.256 350.021 176.875 350.38C176.501 350.732 176.288 351.194 176.237 351.766H180.34C180.288 351.194 180.072 350.732 179.691 350.38C179.317 350.021 178.847 349.841 178.283 349.841ZM187.877 352.349H183.037C183.081 352.95 183.312 353.438 183.73 353.812C184.148 354.179 184.676 354.362 185.314 354.362C185.673 354.362 186.003 354.3 186.304 354.175C186.604 354.043 186.865 353.852 187.085 353.603L187.525 354.109C187.268 354.417 186.945 354.652 186.557 354.813C186.175 354.974 185.754 355.055 185.292 355.055C184.698 355.055 184.17 354.93 183.708 354.681C183.253 354.424 182.897 354.072 182.641 353.625C182.384 353.178 182.256 352.672 182.256 352.107C182.256 351.542 182.377 351.036 182.619 350.589C182.868 350.142 183.205 349.793 183.631 349.544C184.063 349.295 184.547 349.17 185.083 349.17C185.618 349.17 186.098 349.295 186.524 349.544C186.949 349.793 187.283 350.142 187.525 350.589C187.767 351.029 187.888 351.535 187.888 352.107L187.877 352.349ZM185.083 349.841C184.525 349.841 184.056 350.021 183.675 350.38C183.301 350.732 183.088 351.194 183.037 351.766H187.14C187.088 351.194 186.872 350.732 186.491 350.38C186.117 350.021 185.647 349.841 185.083 349.841Z" fill="black" fill-opacity="0.7"/>
<path d="M122.495 356.1H188.504V356.65H122.495V356.1Z" fill="black" fill-opacity="0.7"/>
<path d="M49.25 43.1113C48.5567 43.1113 47.9267 42.9579 47.36 42.6513C46.8 42.3379 46.36 41.9113 46.04 41.3713C45.7267 40.8313 45.57 40.2246 45.57 39.5513C45.57 38.8779 45.7267 38.2713 46.04 37.7313C46.36 37.1913 46.8 36.7679 47.36 36.4613C47.9267 36.1479 48.5567 35.9913 49.25 35.9913C49.9433 35.9913 50.5667 36.1446 51.12 36.4513C51.68 36.7579 52.12 37.1846 52.44 37.7313C52.76 38.2713 52.92 38.8779 52.92 39.5513C52.92 40.2246 52.76 40.8346 52.44 41.3813C52.12 41.9213 51.68 42.3446 51.12 42.6513C50.5667 42.9579 49.9433 43.1113 49.25 43.1113ZM49.25 42.4513C49.8033 42.4513 50.3033 42.3279 50.75 42.0813C51.1967 41.8279 51.5467 41.4813 51.8 41.0413C52.0533 40.5946 52.18 40.0979 52.18 39.5513C52.18 39.0046 52.0533 38.5113 51.8 38.0713C51.5467 37.6246 51.1967 37.2779 50.75 37.0313C50.3033 36.7779 49.8033 36.6513 49.25 36.6513C48.6967 36.6513 48.1933 36.7779 47.74 37.0313C47.2933 37.2779 46.94 37.6246 46.68 38.0713C46.4267 38.5113 46.3 39.0046 46.3 39.5513C46.3 40.0979 46.4267 40.5946 46.68 41.0413C46.94 41.4813 47.2933 41.8279 47.74 42.0813C48.1933 42.3279 48.6967 42.4513 49.25 42.4513ZM54.5159 37.7913H55.2259V40.1213H58.5359V37.7913H59.2459V43.0513H58.5359V40.7313H55.2259V43.0513H54.5159V37.7913ZM65.5639 37.7913V43.0513H64.8539V38.4213H62.3339L62.2639 39.7213C62.2106 40.8146 62.0839 41.6546 61.8839 42.2413C61.6839 42.8279 61.3272 43.1213 60.8139 43.1213C60.6739 43.1213 60.5039 43.0946 60.3039 43.0413L60.3539 42.4313C60.4739 42.4579 60.5572 42.4713 60.6039 42.4713C60.8772 42.4713 61.0839 42.3446 61.2239 42.0913C61.3639 41.8379 61.4572 41.5246 61.5039 41.1513C61.5506 40.7779 61.5906 40.2846 61.6239 39.6713L61.7139 37.7913H65.5639ZM69.3923 37.7513C70.0789 37.7513 70.6056 37.9246 70.9723 38.2713C71.3389 38.6113 71.5223 39.1179 71.5223 39.7913V43.0513H70.8423V42.2313C70.6823 42.5046 70.4456 42.7179 70.1323 42.8713C69.8256 43.0246 69.4589 43.1013 69.0323 43.1013C68.4456 43.1013 67.9789 42.9613 67.6323 42.6813C67.2856 42.4013 67.1123 42.0313 67.1123 41.5713C67.1123 41.1246 67.2723 40.7646 67.5923 40.4913C67.9189 40.2179 68.4356 40.0813 69.1423 40.0813H70.8123V39.7613C70.8123 39.3079 70.6856 38.9646 70.4323 38.7313C70.1789 38.4913 69.8089 38.3713 69.3223 38.3713C68.9889 38.3713 68.6689 38.4279 68.3623 38.5413C68.0556 38.6479 67.7923 38.7979 67.5723 38.9913L67.2523 38.4613C67.5189 38.2346 67.8389 38.0613 68.2123 37.9413C68.5856 37.8146 68.9789 37.7513 69.3923 37.7513ZM69.1423 42.5413C69.5423 42.5413 69.8856 42.4513 70.1723 42.2713C70.4589 42.0846 70.6723 41.8179 70.8123 41.4713V40.6113H69.1623C68.2623 40.6113 67.8123 40.9246 67.8123 41.5513C67.8123 41.8579 67.9289 42.1013 68.1623 42.2813C68.3956 42.4546 68.7223 42.5413 69.1423 42.5413ZM73.4123 37.7913H74.1223V41.9713L77.6323 37.7913H78.2623V43.0513H77.5523V38.8713L74.0523 43.0513H73.4123V37.7913ZM75.8023 37.0313C75.349 37.0313 74.989 36.9179 74.7223 36.6913C74.4557 36.4646 74.319 36.1446 74.3123 35.7313H74.8223C74.829 35.9913 74.9223 36.2013 75.1023 36.3613C75.2823 36.5146 75.5157 36.5913 75.8023 36.5913C76.089 36.5913 76.3223 36.5146 76.5023 36.3613C76.689 36.2013 76.7857 35.9913 76.7923 35.7313H77.3023C77.2957 36.1446 77.1557 36.4646 76.8823 36.6913C76.6157 36.9179 76.2557 37.0313 75.8023 37.0313ZM80.2971 37.7913H81.0071V40.1213H84.3171V37.7913H85.0271V43.0513H84.3171V40.7313H81.0071V43.0513H80.2971V37.7913Z" fill="black"/>
<g clip-path="url(#clip0)">
<path d="M34.032 31C31.3336 31 28.8922 33.1815 28.8922 35.8764C28.8922 38.5712 31.1215 41.7857 34.032 46.399C36.9424 41.7857 39.1718 38.5712 39.1718 35.8764C39.1718 33.1815 36.7304 31 34.032 31ZM34.032 39.5657C32.1302 39.5657 30.5947 38.0322 30.5947 36.133C30.5947 34.2338 32.1302 32.7003 34.032 32.7003C35.9337 32.7003 37.4692 34.2338 37.4692 36.133C37.4692 38.0322 35.9337 39.5657 34.032 39.5657Z" fill="black"/>
<path d="M34.032 37.8462C34.9794 37.8462 35.7474 37.0792 35.7474 36.1331C35.7474 35.1869 34.9794 34.4199 34.032 34.4199C33.0846 34.4199 32.3166 35.1869 32.3166 36.1331C32.3166 37.0792 33.0846 37.8462 34.032 37.8462Z" fill="black"/>
</g>
<path d="M43.764 274.792H42.084V277H41.22V274.792H36.48V274.168L40.932 268.6H41.892L37.596 274.024H41.244V272.08H42.084V274.024H43.764V274.792ZM44.7708 273.376H47.9148V274.12H44.7708V273.376ZM55.0676 268.6V269.212L51.5516 277H50.6156L54.0716 269.368H49.7516V270.94H48.8996V268.6H55.0676ZM59.9347 270.688H60.7867V273.484H64.7587V270.688H65.6107V277H64.7587V274.216H60.7867V277H59.9347V270.688ZM70.6363 277.06C70.0283 277.06 69.4803 276.924 68.9923 276.652C68.5043 276.372 68.1203 275.988 67.8403 275.5C67.5603 275.012 67.4203 274.46 67.4203 273.844C67.4203 273.228 67.5603 272.676 67.8403 272.188C68.1203 271.7 68.5043 271.32 68.9923 271.048C69.4803 270.776 70.0283 270.64 70.6363 270.64C71.2443 270.64 71.7923 270.776 72.2803 271.048C72.7683 271.32 73.1483 271.7 73.4203 272.188C73.7003 272.676 73.8403 273.228 73.8403 273.844C73.8403 274.46 73.7003 275.012 73.4203 275.5C73.1483 275.988 72.7683 276.372 72.2803 276.652C71.7923 276.924 71.2443 277.06 70.6363 277.06ZM70.6363 276.304C71.0843 276.304 71.4843 276.204 71.8363 276.004C72.1963 275.796 72.4763 275.504 72.6763 275.128C72.8763 274.752 72.9763 274.324 72.9763 273.844C72.9763 273.364 72.8763 272.936 72.6763 272.56C72.4763 272.184 72.1963 271.896 71.8363 271.696C71.4843 271.488 71.0843 271.384 70.6363 271.384C70.1883 271.384 69.7843 271.488 69.4243 271.696C69.0723 271.896 68.7923 272.184 68.5843 272.56C68.3843 272.936 68.2843 273.364 68.2843 273.844C68.2843 274.324 68.3843 274.752 68.5843 275.128C68.7923 275.504 69.0723 275.796 69.4243 276.004C69.7843 276.204 70.1883 276.304 70.6363 276.304ZM80.2866 270.688V277H79.5066V274.912H77.5266H77.2866L75.8226 277H74.8986L76.4706 274.792C75.9826 274.656 75.6066 274.424 75.3426 274.096C75.0786 273.768 74.9466 273.352 74.9466 272.848C74.9466 272.144 75.1866 271.608 75.6666 271.24C76.1466 270.872 76.8026 270.688 77.6346 270.688H80.2866ZM75.8106 272.872C75.8106 273.808 76.4066 274.276 77.5986 274.276H79.5066V271.444H77.6586C76.4266 271.444 75.8106 271.92 75.8106 272.872ZM85.7759 270.844C86.3599 270.844 86.8799 270.976 87.3359 271.24C87.7999 271.496 88.1599 271.86 88.4159 272.332C88.6719 272.796 88.7999 273.328 88.7999 273.928C88.7999 274.544 88.6639 275.092 88.3919 275.572C88.1279 276.044 87.7559 276.412 87.2759 276.676C86.7959 276.94 86.2439 277.072 85.6199 277.072C84.5719 277.072 83.7599 276.704 83.1839 275.968C82.6079 275.232 82.3199 274.216 82.3199 272.92C82.3199 271.568 82.5759 270.532 83.0879 269.812C83.6079 269.092 84.4159 268.604 85.5119 268.348L88.3439 267.7L88.4879 268.48L85.8239 269.092C84.9199 269.292 84.2559 269.648 83.8319 270.16C83.4079 270.664 83.1759 271.412 83.1359 272.404C83.3919 271.916 83.7479 271.536 84.2039 271.264C84.6599 270.984 85.1839 270.844 85.7759 270.844ZM85.6439 276.364C86.0839 276.364 86.4759 276.264 86.8199 276.064C87.1719 275.856 87.4439 275.568 87.6359 275.2C87.8359 274.832 87.9359 274.416 87.9359 273.952C87.9359 273.488 87.8399 273.08 87.6479 272.728C87.4559 272.376 87.1839 272.104 86.8319 271.912C86.4879 271.712 86.0919 271.612 85.6439 271.612C85.1959 271.612 84.7959 271.712 84.4439 271.912C84.0999 272.104 83.8279 272.376 83.6279 272.728C83.4359 273.08 83.3399 273.488 83.3399 273.952C83.3399 274.416 83.4359 274.832 83.6279 275.2C83.8279 275.568 84.1039 275.856 84.4559 276.064C84.8079 276.264 85.2039 276.364 85.6439 276.364ZM93.8781 270.64C94.4701 270.64 95.0061 270.776 95.4861 271.048C95.9661 271.312 96.3421 271.688 96.6141 272.176C96.8861 272.664 97.0221 273.22 97.0221 273.844C97.0221 274.476 96.8861 275.036 96.6141 275.524C96.3421 276.012 95.9661 276.392 95.4861 276.664C95.0141 276.928 94.4781 277.06 93.8781 277.06C93.3661 277.06 92.9021 276.956 92.4861 276.748C92.0781 276.532 91.7421 276.22 91.4781 275.812V279.328H90.6261V270.688H91.4421V271.936C91.6981 271.52 92.0341 271.2 92.4501 270.976C92.8741 270.752 93.3501 270.64 93.8781 270.64ZM93.8181 276.304C94.2581 276.304 94.6581 276.204 95.0181 276.004C95.3781 275.796 95.6581 275.504 95.8581 275.128C96.0661 274.752 96.1701 274.324 96.1701 273.844C96.1701 273.364 96.0661 272.94 95.8581 272.572C95.6581 272.196 95.3781 271.904 95.0181 271.696C94.6581 271.488 94.2581 271.384 93.8181 271.384C93.3701 271.384 92.9661 271.488 92.6061 271.696C92.2541 271.904 91.9741 272.196 91.7661 272.572C91.5661 272.94 91.4661 273.364 91.4661 273.844C91.4661 274.324 91.5661 274.752 91.7661 275.128C91.9741 275.504 92.2541 275.796 92.6061 276.004C92.9661 276.204 93.3701 276.304 93.8181 276.304ZM103.478 270.688V277H102.698V274.912H100.718H100.478L99.014 277H98.09L99.662 274.792C99.174 274.656 98.798 274.424 98.534 274.096C98.27 273.768 98.138 273.352 98.138 272.848C98.138 272.144 98.378 271.608 98.858 271.24C99.338 270.872 99.994 270.688 100.826 270.688H103.478ZM99.002 272.872C99.002 273.808 99.598 274.276 100.79 274.276H102.698V271.444H100.85C99.618 271.444 99.002 271.92 99.002 272.872Z" fill="black"/>
<path d="M87.975 144.705H96.8689C100.717 144.705 103.478 143.827 105.194 142.143C106.91 140.46 107.862 137.375 107.862 133.009C107.862 128.481 106.984 125.558 105.087 123.833C103.191 122.108 100.721 121.469 96.8735 121.469H87.975V144.705ZM103.117 133.009C102.918 139.701 101.757 140.779 96.3879 140.899H92.341V125.225H96.3879C99.1629 125.225 100.513 125.465 101.637 126.543C102.761 127.621 103.117 129.521 103.117 133.009ZM118.842 127.2C113.597 127.2 110.91 129.605 110.91 136.135C110.91 139.461 111.632 141.782 113.033 143.147C114.435 144.511 116.52 145.186 119.166 145.186C121.179 145.195 123.18 144.882 125.095 144.261L124.415 140.978C122.871 141.458 121.264 141.701 119.647 141.699C118.084 141.699 116.923 141.375 116.28 140.816C115.637 140.256 115.281 139.054 115.239 137.291H126.339C126.46 133.166 126.02 130.599 124.66 129.156C123.301 127.713 121.654 127.237 118.81 127.237L118.842 127.2ZM119.004 130.483C120.237 130.483 121.079 130.724 121.529 131.205C121.992 131.667 122.251 132.648 122.288 134.133H115.336C115.619 131.325 116.46 130.483 119.064 130.483H119.004ZM135.83 140.543C134.507 135.81 133.106 131.536 131.626 127.722H127.297C129.517 133.274 131.43 138.943 133.027 144.705H138.156C140.677 138.536 142.721 132.888 144.284 127.722H140.076C138.915 132.071 137.511 136.351 135.871 140.543H135.83ZM156.906 145.168C164.306 145.168 167.96 142.444 167.96 132.828C167.96 128.143 167.081 125.058 165.185 123.296C163.288 121.534 160.777 120.85 156.892 120.85C153.007 120.85 150.56 121.534 148.567 123.296C146.643 125.058 145.792 128.185 145.792 132.828C145.792 137.597 146.675 140.76 148.567 142.606C150.459 144.451 153.012 145.131 156.892 145.131L156.906 145.168ZM150.533 132.912C150.533 129.304 150.773 127.422 151.814 126.261C152.854 125.1 154.219 124.818 156.943 124.818C159.667 124.818 160.99 125.058 162.03 126.261C163.071 127.463 163.353 129.304 163.353 132.912C163.353 139.96 162.03 141.204 156.985 141.204C151.939 141.204 150.616 139.96 150.616 132.912H150.533ZM179.208 145.168C182.052 145.168 184.138 144.488 185.419 143.207C186.7 141.926 187.343 139.479 187.343 136.117C187.343 132.754 186.7 130.465 185.419 129.179C184.138 127.893 182.052 127.218 179.208 127.218C176.363 127.218 174.361 127.898 173.08 129.179C171.798 130.46 171.156 132.787 171.156 136.117C171.156 139.447 171.798 141.842 173.08 143.207C174.361 144.571 176.405 145.168 179.249 145.168H179.208ZM179.208 130.548C182.334 130.627 182.977 131.27 183.097 136.195C183.097 138.508 182.815 140.002 182.293 140.723C181.77 141.445 180.729 141.842 179.208 141.842C177.686 141.842 176.687 141.482 176.164 140.723C175.642 139.965 175.401 138.48 175.401 136.195C175.401 133.832 175.683 132.31 176.164 131.63C176.645 130.951 177.7 130.567 179.235 130.567L179.208 130.548ZM199.239 145.168C201.685 145.168 203.526 144.488 204.789 143.165C206.051 141.842 206.671 139.465 206.671 136.195C206.671 132.828 206.028 130.465 204.747 129.184C203.466 127.903 201.422 127.223 198.499 127.223C195.955 127.16 193.424 127.596 191.048 128.504V151.139H195.173V144.201C196.442 144.844 197.844 145.182 199.266 145.186L199.239 145.168ZM198.512 130.807C200.034 130.807 201.033 131.168 201.597 131.885C202.162 132.602 202.439 134.049 202.439 136.334C202.439 138.415 202.157 139.821 201.597 140.58C201.038 141.338 200.034 141.704 198.549 141.704C196.667 141.704 195.224 141.019 195.224 140.062V131.325C196.294 130.96 197.419 130.785 198.549 130.807H198.512ZM222.562 128.162C220.717 127.536 218.78 127.223 216.832 127.237C212.147 127.237 209.543 128.758 209.543 132.884C209.543 136.209 211.305 137.412 215.273 137.731C218.118 138.013 218.918 138.531 218.918 139.775C218.918 141.496 217.993 141.856 215.593 141.856C213.875 141.873 212.167 141.605 210.537 141.061L209.659 144.345C211.621 144.994 213.679 145.307 215.745 145.27C218.113 145.27 219.908 144.807 221.156 143.984C222.405 143.161 223.039 141.671 223.039 139.581C223.039 136.255 221.355 134.891 217.11 134.452C214.335 134.17 213.585 133.772 213.585 132.602C213.585 130.96 214.385 130.641 216.67 130.641C218.344 130.65 220.005 130.92 221.596 131.441L222.521 128.203L222.562 128.162Z" fill="black"/>
<path d="M185.849 94.2378C183.708 94.2415 181.615 94.8795 179.836 96.0714C178.057 97.2634 176.671 98.9557 175.853 100.935C175.035 102.914 174.822 105.091 175.24 107.191C175.658 109.291 176.69 111.22 178.204 112.735C179.718 114.25 181.646 115.282 183.746 115.701C185.846 116.12 188.023 115.908 190.003 115.091C191.982 114.273 193.675 112.888 194.868 111.109C196.061 109.331 196.699 107.239 196.704 105.097C196.702 102.219 195.557 99.4587 193.522 97.4228C191.487 95.3869 188.728 94.2415 185.849 94.2378ZM185.849 111.813C184.51 111.814 183.2 111.417 182.086 110.674C180.972 109.93 180.103 108.873 179.59 107.636C179.077 106.399 178.942 105.037 179.203 103.724C179.464 102.41 180.108 101.203 181.055 100.256C182.002 99.3082 183.208 98.6629 184.522 98.4012C185.835 98.1396 187.197 98.2734 188.435 98.7858C189.672 99.2981 190.73 100.166 191.474 101.28C192.218 102.393 192.616 103.702 192.616 105.042C192.611 106.835 191.896 108.554 190.629 109.823C189.361 111.091 187.643 111.807 185.849 111.813Z" fill="#503B7F"/>
<path d="M129.198 94.2378C127.056 94.2424 124.964 94.8812 123.186 96.0737C121.407 97.2662 120.022 98.9588 119.205 100.938C118.387 102.917 118.175 105.094 118.594 107.194C119.013 109.294 120.044 111.223 121.558 112.737C123.072 114.251 125.001 115.282 127.101 115.701C129.201 116.12 131.378 115.907 133.357 115.09C135.336 114.273 137.029 112.887 138.221 111.109C139.414 109.33 140.053 107.239 140.057 105.097C140.056 102.218 138.911 99.4561 136.875 97.4198C134.839 95.3835 132.077 94.239 129.198 94.2378ZM129.198 111.813C127.858 111.813 126.549 111.416 125.436 110.672C124.322 109.928 123.454 108.87 122.942 107.633C122.429 106.396 122.295 105.034 122.557 103.721C122.818 102.407 123.463 101.201 124.41 100.254C125.357 99.307 126.563 98.6622 127.877 98.4009C129.19 98.1396 130.551 98.2737 131.789 98.7862C133.026 99.2987 134.083 100.167 134.827 101.28C135.571 102.394 135.969 103.703 135.969 105.042C135.962 106.836 135.247 108.554 133.979 109.823C132.71 111.091 130.991 111.807 129.198 111.813Z" fill="#503B7F"/>
<path d="M134.688 94.0666L134.489 90.5054H180.359L180.517 94.0666H134.688Z" fill="#503B7F"/>
<path d="M176.715 87.9384L179.198 85.2559L183.763 96.6704L180.318 97.7526L176.715 87.9384Z" fill="#503B7F"/>
<path d="M138.295 87.9384L135.811 85.2559L131.284 96.6704L134.688 97.7526L138.295 87.9384Z" fill="#503B7F"/>
<path d="M179.878 83.5998C176.553 87.0038 171.983 85.1584 170.864 81.3937C170.425 80.1912 170.744 78.9517 170.665 77.9481C171.118 77.9954 171.575 77.9829 172.025 77.9111C173.018 77.7457 173.94 77.2891 174.674 76.5993C175.408 75.9095 175.92 75.0174 176.147 74.0361C176.373 73.0548 176.303 72.0284 175.946 71.0868C175.588 70.1453 174.959 69.3311 174.139 68.7473C173.318 68.1635 172.343 67.8363 171.336 67.8073C170.329 67.7783 169.337 68.0487 168.484 68.5842C167.631 69.1198 166.956 69.8965 166.545 70.8158C166.134 71.7352 166.005 72.7558 166.174 73.7486C166.346 74.7215 166.792 75.625 167.46 76.3525C163.571 78.9563 155.639 88.6503 160.088 93.0579C163.492 96.4249 172.668 100.87 166.216 108.843C165.578 109.643 168.26 110.365 169.06 109.481C170.927 107.4 172.078 104.776 172.344 101.993C172.807 98.4646 169.861 94.9403 167.978 92.3364C166.776 90.6946 168.339 85.0844 169.944 86.3656C172.585 88.9694 176.511 89.6909 178.995 86.3656C179.716 86.0464 180.637 83.0032 179.878 83.5628V83.5998Z" fill="#503B7F"/>
<path d="M135.15 83.6001C138.475 87.0041 143.04 85.1587 144.164 81.3939C144.604 80.1914 144.284 78.9519 144.363 77.9483C143.91 77.9956 143.453 77.9831 143.003 77.9113C141.886 77.7262 140.862 77.1734 140.094 76.3405C139.326 75.5077 138.858 74.4424 138.765 73.3135C138.671 72.1845 138.956 71.0566 139.576 70.1085C140.196 69.1603 141.115 68.4461 142.186 68.0791C143.258 67.7121 144.422 67.7133 145.492 68.0824C146.563 68.4516 147.481 69.1676 148.099 70.117C148.716 71.0664 149 72.1949 148.904 73.3236C148.808 74.4524 148.338 75.5167 147.568 76.3481C151.453 78.9519 159.39 88.6459 154.94 93.0536C151.536 96.4206 142.36 100.865 148.812 108.839C149.451 109.639 146.768 110.36 145.968 109.477C144.1 107.396 142.948 104.772 142.68 101.989C142.24 98.4602 145.168 94.9359 147.05 92.3321C148.248 90.6902 146.689 85.0801 145.085 86.3612C142.439 88.9651 138.517 89.6866 136.033 86.3612C135.312 86.0421 134.387 82.9988 135.15 83.5584V83.6001Z" fill="#503B7F"/>
<path d="M171.304 108.691H165.777C165.337 108.691 164.977 109.153 164.977 109.773C164.977 110.374 165.337 110.855 165.777 110.855H171.304C171.766 110.855 172.104 110.393 172.104 109.773C172.104 109.172 171.743 108.691 171.304 108.691Z" fill="#503B7F"/>
<path d="M149.39 108.691H143.863C143.401 108.691 143.059 109.153 143.059 109.773C143.059 110.374 143.419 110.855 143.863 110.855H149.39C149.853 110.855 150.19 110.393 150.19 109.773C150.19 109.172 149.83 108.691 149.39 108.691Z" fill="#503B7F"/>
<path d="M164.093 101.041H150.995C150.736 101.07 150.498 101.2 150.333 101.402C150.168 101.604 150.088 101.863 150.112 102.123C150.09 102.383 150.17 102.64 150.335 102.842C150.5 103.043 150.737 103.172 150.995 103.201H164.093C164.352 103.172 164.589 103.043 164.754 102.842C164.919 102.64 164.999 102.383 164.977 102.123C165 101.863 164.921 101.604 164.755 101.402C164.59 101.2 164.353 101.07 164.093 101.041Z" fill="#503B7F"/>
<path d="M148.1 109.251C149.062 105.726 149.219 105.125 150.144 101.601C150.194 101.488 150.266 101.386 150.356 101.302C150.446 101.217 150.551 101.152 150.667 101.109C150.782 101.066 150.905 101.046 151.028 101.051C151.151 101.056 151.272 101.086 151.384 101.138C151.943 101.3 152.346 101.781 152.226 102.179L150.181 109.833C150.075 110.056 149.886 110.228 149.655 110.315C149.424 110.401 149.168 110.394 148.942 110.296C148.387 110.134 147.989 109.653 148.1 109.251Z" fill="#503B7F"/>
<path d="M167.137 109.454C166.175 105.925 166.017 105.329 165.097 101.8C164.989 101.577 164.8 101.404 164.568 101.318C164.336 101.232 164.08 101.239 163.853 101.337C163.293 101.499 162.891 101.98 163.011 102.382L165.055 110.032C165.105 110.145 165.177 110.246 165.267 110.331C165.357 110.415 165.462 110.481 165.578 110.524C165.693 110.567 165.816 110.587 165.939 110.582C166.062 110.577 166.183 110.547 166.295 110.495C166.859 110.333 167.257 109.852 167.137 109.454Z" fill="#503B7F"/>
<defs>
<filter id="filter0_d" x="0" y="0" width="310" height="392" filterUnits="userSpaceOnUse" color-interpolation-filters="sRGB">
<feFlood flood-opacity="0" result="BackgroundImageFix"/>
<feColorMatrix in="SourceAlpha" type="matrix" values="0 0 0 0 0 0 0 0 0 0 0 0 0 0 0 0 0 0 127 0"/>
<feOffset dy="2"/>
<feGaussianBlur stdDeviation="7.5"/>
<feColorMatrix type="matrix" values="0 0 0 0 0 0 0 0 0 0 0 0 0 0 0 0 0 0 0.05 0"/>
<feBlend mode="normal" in2="BackgroundImageFix" result="effect1_dropShadow"/>
<feBlend mode="normal" in="SourceGraphic" in2="effect1_dropShadow" result="shape"/>
</filter>
<clipPath id="clip0">
<rect width="15.4194" height="15.399" fill="white" transform="translate(26.3223 31)"/>
</clipPath>
</defs>
</svg>
