<svg width="35" height="35" viewBox="0 0 35 35" fill="none" xmlns="http://www.w3.org/2000/svg">
<circle cx="17.3571" cy="17.3571" r="17.3571" fill="#F9F9F9"/>
<g clip-path="url(#clip0)">
<path d="M27 11.4173C26.3377 11.7113 25.626 11.9093 24.879 11.9985C25.6418 11.5418 26.2275 10.818 26.5028 9.95555C25.7895 10.3785 24.999 10.686 24.1575 10.8518C23.4847 10.134 22.524 9.68555 21.462 9.68555C19.0777 9.68555 17.3258 11.91 17.8643 14.2193C14.796 14.0655 12.075 12.5955 10.2533 10.3613C9.28575 12.021 9.7515 14.1923 11.3955 15.2918C10.791 15.2723 10.221 15.1065 9.72375 14.8298C9.68325 16.5405 10.9095 18.141 12.6855 18.4973C12.1658 18.6383 11.5965 18.6713 11.0175 18.5603C11.487 20.0273 12.8505 21.0945 14.4675 21.1245C12.915 22.3418 10.959 22.8855 9 22.6545C10.6342 23.7023 12.576 24.3135 14.661 24.3135C21.5175 24.3135 25.3912 18.5228 25.1572 13.329C25.8787 12.8078 26.505 12.1575 27 11.4173Z" fill="#9A9A9A"/>
</g>
<defs>
<clipPath id="clip0">
<rect width="18" height="18" fill="white" transform="translate(9 8)"/>
</clipPath>
</defs>
</svg>
