<svg width="18" height="15" viewBox="0 0 18 15" fill="none" xmlns="http://www.w3.org/2000/svg">
<path d="M18 1.9173C17.3377 2.2113 16.626 2.4093 15.879 2.49855C16.6418 2.0418 17.2275 1.31805 17.5028 0.455547C16.7895 0.878547 15.999 1.18605 15.1575 1.3518C14.4847 0.634047 13.524 0.185547 12.462 0.185547C10.0777 0.185547 8.32575 2.41005 8.86425 4.7193C5.796 4.56555 3.075 3.09555 1.25325 0.861297C0.28575 2.52105 0.7515 4.6923 2.3955 5.7918C1.791 5.7723 1.221 5.60655 0.72375 5.3298C0.68325 7.04055 1.9095 8.64105 3.6855 8.9973C3.16575 9.1383 2.5965 9.1713 2.0175 9.0603C2.487 10.5273 3.8505 11.5945 5.4675 11.6245C3.915 12.8418 1.959 13.3855 0 13.1545C1.63425 14.2023 3.576 14.8135 5.661 14.8135C12.5175 14.8135 16.3912 9.0228 16.1572 3.82905C16.8787 3.3078 17.505 2.65755 18 1.9173Z" fill="#9A9A9A"/>
</svg>
