<svg width="17" height="14" viewBox="0 0 17 14" fill="none" xmlns="http://www.w3.org/2000/svg">
<path d="M16.3333 1.86718C15.761 2.12125 15.1459 2.29236 14.5004 2.36949C15.1595 1.97477 15.6657 1.34931 15.9036 0.603939C15.2872 0.969494 14.6041 1.23524 13.8768 1.37848C13.2955 0.758198 12.4652 0.370605 11.5474 0.370605C9.48694 0.370605 7.97286 2.29301 8.43823 4.28866C5.78666 4.15579 3.43518 2.88542 1.86083 0.954587C1.02472 2.38894 1.42722 4.26533 2.84796 5.21551C2.32555 5.19866 1.83296 5.05542 1.40323 4.81625C1.36823 6.29468 2.42796 7.67783 3.96277 7.9857C3.5136 8.10755 3.02166 8.13607 2.52129 8.04014C2.92703 9.30792 4.10536 10.2302 5.50277 10.2562C4.1611 11.3081 2.47073 11.778 0.777771 11.5784C2.19009 12.4838 3.86814 13.0121 5.66999 13.0121C11.5954 13.0121 14.943 8.00773 14.7408 3.51931C15.3643 3.06885 15.9055 2.5069 16.3333 1.86718Z" fill="#9A9A9A"/>
</svg>
